<?xml version="1.0" encoding="UTF-8"?>
<svg version="1.1" xmlns="http://www.w3.org/2000/svg" width="777" height="321">
<path d="M0 0 C1.30839844 0.13535156 2.61679687 0.27070313 3.96484375 0.41015625 C5.07605591 0.51070312 5.07605591 0.51070312 6.2097168 0.61328125 C7.99579814 0.77658012 9.78065096 0.95358125 11.56445312 1.14013672 C15.60580128 1.54273445 19.65097117 1.87085975 23.69921875 2.1953125 C29.93090254 2.7008612 36.16200973 3.21171524 42.390625 3.75390625 C43.4147348 3.8398983 43.4147348 3.8398983 44.45953369 3.92762756 C54.26072136 4.79296664 54.26072136 4.79296664 56.2644043 6.91552734 C56.6025415 7.51961426 56.94067871 8.12370117 57.2890625 8.74609375 C57.86043945 9.73609375 57.86043945 9.73609375 58.44335938 10.74609375 C58.82169922 11.43960938 59.20003906 12.133125 59.58984375 12.84765625 C60.36435215 14.20976689 61.13908371 15.57175068 61.9140625 16.93359375 C62.24881592 17.53993652 62.58356934 18.1462793 62.9284668 18.77099609 C63.84958127 20.3804641 64.87370175 21.92969326 65.90234375 23.47265625 C79.59824698 22.01928325 93.25084991 20.29455928 106.90234375 18.47265625 C113.31344694 26.84752078 119.54962224 35.30117687 125.46484375 44.03515625 C130.6238295 51.65105646 135.96429728 59.09814173 141.43847656 66.48925781 C144.23772762 70.28197222 147.00927286 74.09465423 149.77734375 77.91015625 C150.31294922 78.64371338 150.84855469 79.37727051 151.40039062 80.13305664 C160.90234375 93.24593079 160.90234375 93.24593079 160.90234375 96.47265625 C159.76796875 96.19550781 158.63359375 95.91835937 157.46484375 95.6328125 C155.94406527 95.26669916 154.4232288 94.90082662 152.90234375 94.53515625 C152.15855469 94.35275391 151.41476562 94.17035156 150.6484375 93.98242188 C146.93491125 93.09440473 143.3748909 92.39273961 139.56640625 92.08203125 C135.90234375 91.47265625 135.90234375 91.47265625 133.86328125 89.890625 C133.33992188 89.15457031 132.8165625 88.41851562 132.27734375 87.66015625 C131.6225 86.76167969 130.96765625 85.86320312 130.29296875 84.9375 C129.4952275 83.78315025 128.69846245 82.62812562 127.90234375 81.47265625 C126.8150484 79.93141168 125.7263975 78.3911229 124.63671875 76.8515625 C122.2045923 73.40291054 119.78816034 69.94394052 117.3828125 66.4765625 C112.95369384 60.09538223 108.43091152 53.78348683 103.90234375 47.47265625 C103.50289551 46.84439941 103.10344727 46.21614258 102.69189453 45.56884766 C100.18849429 41.59359511 100.18849429 41.59359511 96.08984375 39.53515625 C95.00703125 39.50421875 95.00703125 39.50421875 93.90234375 39.47265625 C92.22670205 41.5702006 90.56184181 43.67490264 88.90234375 45.78515625 C88.42539062 46.38005859 87.9484375 46.97496094 87.45703125 47.58789062 C84.57853782 51.10255673 84.57853782 51.10255673 83.90234375 55.47265625 C82.91234375 55.80265625 81.92234375 56.13265625 80.90234375 56.47265625 C78.88650907 59.22251769 77.04409212 62.02382012 75.21875 64.90039062 C74.18403224 66.47337066 73.04889668 67.97922951 71.90234375 69.47265625 C70.91234375 69.47265625 69.92234375 69.47265625 68.90234375 69.47265625 C67.21484375 67.47265625 67.21484375 67.47265625 65.90234375 65.47265625 C66.23234375 67.12265625 66.56234375 68.77265625 66.90234375 70.47265625 C66.24234375 70.47265625 65.58234375 70.47265625 64.90234375 70.47265625 C69.85447765 79.16783162 74.84261665 87.83949689 79.90234375 96.47265625 C77.22340091 98.25861814 75.89917685 98.86434803 72.890625 99.54296875 C71.75463867 99.80400391 71.75463867 99.80400391 70.59570312 100.0703125 C69.81001953 100.24433594 69.02433594 100.41835937 68.21484375 100.59765625 C67.41755859 100.77941406 66.62027344 100.96117188 65.79882812 101.1484375 C63.83458724 101.59539052 61.86862361 102.03476041 59.90234375 102.47265625 C54.93542833 96.27705784 50.82397591 89.61662068 46.75424194 82.81399536 C45.25941705 80.31605177 43.75446317 77.82426892 42.24992371 75.33216858 C41.5038919 74.09637852 40.7582919 72.86032768 40.01313782 71.62400818 C37.06972029 66.74159211 34.10120883 61.87594327 31.08984375 57.03515625 C30.52378418 56.11669922 30.52378418 56.11669922 29.94628906 55.1796875 C27.80549321 51.7512688 25.4866966 48.5796872 22.90234375 45.47265625 C19.8889042 48.80117393 19.45566831 51.29148438 19.21484375 55.72265625 C19.06015625 58.56890625 19.06015625 58.56890625 18.90234375 61.47265625 C11.97234375 61.47265625 5.04234375 61.47265625 -2.09765625 61.47265625 C-1.93265625 59.86390625 -1.76765625 58.25515625 -1.59765625 56.59765625 C-1.10112889 51.20578867 -0.99202491 45.88332842 -1.09765625 40.47265625 C-0.49179687 40.48425781 0.1140625 40.49585938 0.73828125 40.5078125 C6.86159323 40.57375586 12.82327706 40.19697058 18.90234375 39.47265625 C17.56189824 35.86388847 15.94360639 32.71928396 13.8984375 29.4609375 C13.32287109 28.53861328 12.74730469 27.61628906 12.15429688 26.66601562 C11.55552734 25.71533203 10.95675781 24.76464844 10.33984375 23.78515625 C9.15038008 21.88583083 7.96154596 19.98611096 6.7734375 18.0859375 C6.2467749 17.24844971 5.7201123 16.41096191 5.17749023 15.5480957 C3.90234375 13.47265625 3.90234375 13.47265625 2.90234375 11.47265625 C2.24234375 11.47265625 1.58234375 11.47265625 0.90234375 11.47265625 C-0.72867694 13.45887368 -0.72867694 13.45887368 -2.3984375 16.0390625 C-3.37006836 17.48055664 -3.37006836 17.48055664 -4.36132812 18.95117188 C-5.03744141 19.96888672 -5.71355469 20.98660156 -6.41015625 22.03515625 C-7.73892552 24.01606641 -9.06833907 25.99654457 -10.3984375 27.9765625 C-11.02959473 28.91902832 -11.66075195 29.86149414 -12.31103516 30.83251953 C-14.51547968 34.09008486 -16.78879294 37.28847919 -19.09765625 40.47265625 C-17.48568182 43.97080694 -15.427408 47.00647288 -13.22265625 50.16015625 C-12.83045898 50.7219458 -12.43826172 51.28373535 -12.03417969 51.86254883 C-10.72514914 53.73480833 -9.41164429 55.60387326 -8.09765625 57.47265625 C-7.64036133 58.12492187 -7.18306641 58.7771875 -6.71191406 59.44921875 C-1.06620052 67.50009174 4.6357578 75.50792052 10.40234375 83.47265625 C12.01927688 85.71069702 13.63560069 87.94917559 15.25146484 90.18798828 C16.38025015 91.75012565 17.51087056 93.3109382 18.64306641 94.87060547 C20.34058266 97.21221982 22.02865184 99.56037925 23.71484375 101.91015625 C24.23691406 102.62623047 24.75898438 103.34230469 25.296875 104.08007812 C25.77125 104.74458984 26.245625 105.40910156 26.734375 106.09375 C27.15436768 106.67568115 27.57436035 107.2576123 28.00708008 107.85717773 C28.90234375 109.47265625 28.90234375 109.47265625 28.90234375 112.47265625 C6.15785678 120.24238614 6.15785678 120.24238614 -5.34765625 123.59765625 C-6.07839355 123.82155029 -6.80913086 124.04544434 -7.56201172 124.27612305 C-12.52945202 125.67909089 -12.52945202 125.67909089 -15.1418457 124.72998047 C-17.30118313 123.34181572 -18.40588962 122.06854768 -19.875 119.97265625 C-20.38184326 119.25948242 -20.88868652 118.54630859 -21.41088867 117.81152344 C-21.94689697 117.03969727 -22.48290527 116.26787109 -23.03515625 115.47265625 C-24.19636967 113.83185789 -25.35783516 112.19123791 -26.51953125 110.55078125 C-27.11185547 109.70837891 -27.70417969 108.86597656 -28.31445312 107.99804688 C-31.10363458 104.04797938 -33.94619377 100.13700893 -36.78515625 96.22265625 C-41.83244688 89.23941853 -46.85152122 82.23649924 -51.85205078 75.21972656 C-54.13996066 72.0107334 -56.4315994 68.80440297 -58.72265625 65.59765625 C-59.56902513 64.41277092 -60.41538073 63.22787612 -61.26171875 62.04296875 C-61.86757813 61.19476563 -62.4734375 60.3465625 -63.09765625 59.47265625 C-63.90203125 59.65828125 -64.70640625 59.84390625 -65.53515625 60.03515625 C-66.38078125 60.17953125 -67.22640625 60.32390625 -68.09765625 60.47265625 C-68.42765625 60.14265625 -68.75765625 59.81265625 -69.09765625 59.47265625 C-69.77570313 60.46523437 -70.45375 61.4578125 -71.15234375 62.48046875 C-76.13859171 69.76472664 -81.16672733 77.01116249 -86.32348633 84.17578125 C-89.50220895 88.60532339 -92.58892304 93.09310964 -95.66015625 97.59765625 C-100.28392792 104.37318136 -105.10518619 110.96395454 -110.09765625 117.47265625 C-114.60109536 116.96145505 -116.97291051 115.29744267 -120.41015625 112.41015625 C-121.73466797 111.30994141 -121.73466797 111.30994141 -123.0859375 110.1875 C-123.74980469 109.62160156 -124.41367188 109.05570312 -125.09765625 108.47265625 C-122.05304916 102.84497174 -118.50945368 97.82565807 -114.66015625 92.72265625 C-109.78768909 86.18984641 -105.04822767 79.59184702 -100.47265625 72.84765625 C-96.26588936 66.64975885 -92.03440665 60.47315531 -87.72265625 54.34765625 C-87.0272876 53.35451416 -87.0272876 53.35451416 -86.31787109 52.34130859 C-85.43361546 51.08858683 -84.53701317 49.8444492 -83.62580872 48.6111908 C-82.5859123 47.1559339 -81.60019154 45.66076615 -80.66572571 44.13566589 C-76.5424701 37.90093839 -76.5424701 37.90093839 -72.69744873 36.76116943 C-69.86200846 36.62395685 -67.1780876 36.76843242 -64.3515625 37.03125 C-62.83489235 37.11693993 -62.83489235 37.11693993 -61.2875824 37.20436096 C-58.07388668 37.39597508 -54.86912205 37.65198572 -51.66015625 37.91015625 C-49.47618474 38.05180439 -47.2919344 38.1892213 -45.10742188 38.32226562 C-39.76663084 38.65678791 -34.4316893 39.04420351 -29.09765625 39.47265625 C-28.79907715 38.86252686 -28.50049805 38.25239746 -28.19287109 37.6237793 C-23.65878463 28.71833217 -17.09494254 20.57044477 -11.31103516 12.43676758 C-10.57892822 11.40652466 -10.57892822 11.40652466 -9.83203125 10.35546875 C-9.35822021 9.69957764 -8.88440918 9.04368652 -8.39624023 8.36791992 C-6.9052146 6.25933906 -6.9052146 6.25933906 -5.1796875 2.96875 C-3.09765625 0.47265625 -3.09765625 0.47265625 0 0 Z M48.90234375 43.47265625 C49.90234375 45.47265625 49.90234375 45.47265625 49.90234375 45.47265625 Z M49.90234375 45.47265625 C50.90234375 47.47265625 50.90234375 47.47265625 50.90234375 47.47265625 Z M50.90234375 47.47265625 C51.81123131 49.37223126 52.72982406 51.26716411 53.65234375 53.16015625 C54.1628125 54.21589844 54.67328125 55.27164063 55.19921875 56.359375 C56.84765547 59.37268708 58.67734037 61.86553273 60.90234375 64.47265625 C61.23234375 63.81265625 61.56234375 63.15265625 61.90234375 62.47265625 C62.89234375 63.13265625 63.88234375 63.79265625 64.90234375 64.47265625 C63.44669356 61.28615831 61.64423657 58.70978616 59.46484375 55.97265625 C57.69300701 53.7377693 55.94103484 51.52790221 54.3046875 49.19140625 C53.84191406 48.62421875 53.37914062 48.05703125 52.90234375 47.47265625 C52.24234375 47.47265625 51.58234375 47.47265625 50.90234375 47.47265625 Z M10.90234375 50.47265625 C10.90234375 50.80265625 10.90234375 51.13265625 10.90234375 51.47265625 C12.88234375 51.47265625 14.86234375 51.47265625 16.90234375 51.47265625 C16.90234375 51.14265625 16.90234375 50.81265625 16.90234375 50.47265625 C14.92234375 50.47265625 12.94234375 50.47265625 10.90234375 50.47265625 Z M-65.09765625 56.47265625 C-64.09765625 58.47265625 -64.09765625 58.47265625 -64.09765625 58.47265625 Z M62.90234375 67.47265625 C63.23234375 68.46265625 63.56234375 69.45265625 63.90234375 70.47265625 C63.90234375 69.48265625 63.90234375 68.49265625 63.90234375 67.47265625 C63.57234375 67.47265625 63.24234375 67.47265625 62.90234375 67.47265625 Z " fill="#ED8E2A" transform="translate(372.09765625,23.52734375)"/>
<path d="M0 0 C1.2478125 0.07992187 2.495625 0.15984375 3.78125 0.2421875 C12.87626244 0.87626244 12.87626244 0.87626244 14.125 2.125 C16.94227281 2.36295526 19.74017212 2.5476446 22.5625 2.6875 C23.35205078 2.73068359 24.14160156 2.77386719 24.95507812 2.81835938 C29.03774332 3.04482732 29.03774332 3.04482732 33.125 3.125 C33.125 2.465 33.125 1.805 33.125 1.125 C36.28488484 1.125 38.41559268 1.46641464 40.77441406 3.65625 C44.98838588 8.59829024 48.72714172 13.71329725 52.3125 19.125 C56.47403774 25.31183551 60.7304857 31.38188551 65.25 37.3125 C69.76317589 43.240353 74.05837055 49.28142022 78.23803711 55.44873047 C81.60463031 60.40983032 85.12065263 65.22351937 88.76171875 69.98828125 C90.125 72.125 90.125 72.125 90.125 75.125 C67.38051303 82.89472989 67.38051303 82.89472989 55.875 86.25 C55.1442627 86.47389404 54.41352539 86.69778809 53.66064453 86.9284668 C48.69320423 88.33143464 48.69320423 88.33143464 46.08081055 87.38232422 C43.92147312 85.99415947 42.81676663 84.72089143 41.34765625 82.625 C40.84081299 81.91182617 40.33396973 81.19865234 39.81176758 80.46386719 C39.27575928 79.69204102 38.73975098 78.92021484 38.1875 78.125 C37.02628658 76.48420164 35.86482109 74.84358166 34.703125 73.203125 C34.11080078 72.36072266 33.51847656 71.51832031 32.90820312 70.65039062 C30.11902167 66.70032313 27.27646248 62.78935268 24.4375 58.875 C19.39020937 51.89176228 14.37113503 44.88884299 9.37060547 37.87207031 C7.08269559 34.66307715 4.79105685 31.45674672 2.5 28.25 C1.65363112 27.06511467 0.80727552 25.88021987 -0.0390625 24.6953125 C-0.94785156 23.42300781 -0.94785156 23.42300781 -1.875 22.125 C-2.679375 22.310625 -3.48375 22.49625 -4.3125 22.6875 C-5.158125 22.831875 -6.00375 22.97625 -6.875 23.125 C-7.205 22.795 -7.535 22.465 -7.875 22.125 C-8.55304688 23.11757812 -9.23109375 24.11015625 -9.9296875 25.1328125 C-14.91593546 32.41707039 -19.94407108 39.66350624 -25.10083008 46.828125 C-28.2795527 51.25766714 -31.36626679 55.74545339 -34.4375 60.25 C-39.06127167 67.02552511 -43.88252994 73.61629829 -48.875 80.125 C-53.37843911 79.6137988 -55.75025426 77.94978642 -59.1875 75.0625 C-60.51201172 73.96228516 -60.51201172 73.96228516 -61.86328125 72.83984375 C-62.52714844 72.27394531 -63.19101563 71.70804687 -63.875 71.125 C-60.83039291 65.49731549 -57.28679743 60.47800182 -53.4375 55.375 C-48.56503284 48.84219016 -43.82557142 42.24419077 -39.25 35.5 C-35.04323311 29.3021026 -30.8117504 23.12549906 -26.5 17 C-25.80463135 16.00685791 -25.80463135 16.00685791 -25.09521484 14.99365234 C-24.18397381 13.70270046 -23.25678826 12.42285495 -22.31396484 11.15478516 C-20.80456324 9.09582101 -20.80456324 9.09582101 -19.45556641 6.63818359 C-14.37751477 -1.46610162 -8.95724314 -0.86743828 0 0 Z M-3.875 19.125 C-2.875 21.125 -2.875 21.125 -2.875 21.125 Z " fill="#ED8E2A" transform="translate(310.875,60.875)"/>
<path d="M0 0 C5.445 0.495 5.445 0.495 11 1 C10.67 1.66 10.34 2.32 10 3 C11.00417969 3.27972656 12.00835938 3.55945313 13.04296875 3.84765625 C25.21656422 7.36643425 35.86721095 12.22367352 46 20 C45.67 20.99 45.34 21.98 45 23 C43.58460938 22.49339844 43.58460938 22.49339844 42.140625 21.9765625 C34.15453821 19.17567544 26.4530388 16.91272075 18 16 C16.16115234 15.79890625 16.16115234 15.79890625 14.28515625 15.59375 C-30.4096712 11.49350667 -75.25884894 30.24630728 -117.03216553 43.65216064 C-131.54465419 48.30753024 -146.03577744 52.08200703 -161 55 C-162.16273438 55.23589844 -163.32546875 55.47179687 -164.5234375 55.71484375 C-181.1414548 58.70259752 -198.37128766 58.74390283 -215 56 C-216.04929687 55.82726562 -217.09859375 55.65453125 -218.1796875 55.4765625 C-230.87677642 52.82703446 -243.30841712 46.55908331 -253 38 C-254.010625 37.236875 -255.02125 36.47375 -256.0625 35.6875 C-256.701875 35.130625 -257.34125 34.57375 -258 34 C-258 33.34 -258 32.68 -258 32 C-258.66 32 -259.32 32 -260 32 C-263.13618477 29.17743371 -265.15652322 26.73387843 -267 23 C-268.85348521 20.16840064 -270.73933127 17.3609476 -272.63671875 14.55859375 C-273.08660156 13.71425781 -273.53648437 12.86992187 -274 12 C-273.67 11.01 -273.34 10.02 -273 9 C-272.24976563 9.78503906 -271.49953125 10.57007813 -270.7265625 11.37890625 C-250.57891716 32.18267557 -226.61525222 40.76893282 -198.0625 41.25 C-179.70510337 40.96175825 -161.74339626 37.54750659 -144 33 C-144 32.34 -144 31.68 -144 31 C-138.06015358 28.9905626 -132.52553419 27.72334486 -126.2734375 27.25 C-123.34271803 26.92772157 -120.73472789 26.07949785 -118 25 C-118 24.34 -118 23.68 -118 23 C-111.25 20 -111.25 20 -109 20 C-109 20.66 -109 21.32 -109 22 C-108.2879541 21.764021 -107.5759082 21.52804199 -106.84228516 21.28491211 C-75.45438927 10.92685627 -43.69526549 0.6452603 -10.3125 0.9375 C-9.31283203 0.94201172 -8.31316406 0.94652344 -7.28320312 0.95117188 C-4.85540203 0.96278815 -2.427736 0.97911832 0 1 C0 0.67 0 0.34 0 0 Z " fill="#020101" transform="translate(512,118)"/>
<path d="M0 0 C1.06476562 -0.01224609 2.12953125 -0.02449219 3.2265625 -0.03710938 C12.24562684 -0.05372927 20.26860262 0.30147888 27.5 6.1875 C32.31658605 11.65497606 32.84074888 14.94840576 32.7890625 22.1328125 C32.30230969 27.27660567 30.16925072 30.19723952 26.875 34.125 C25.5 35.1875 25.5 35.1875 23.5 35.1875 C24.221875 36.23550781 24.94375 37.28351563 25.6875 38.36328125 C26.62536336 39.74194039 27.56284352 41.12086026 28.5 42.5 C28.97695313 43.19029297 29.45390625 43.88058594 29.9453125 44.59179688 C30.39648438 45.25888672 30.84765625 45.92597656 31.3125 46.61328125 C31.73144531 47.22598877 32.15039062 47.83869629 32.58203125 48.4699707 C33.5 50.1875 33.5 50.1875 33.5 53.1875 C28.67560887 53.84993373 24.2943353 54.15473231 19.5 53.1875 C16.14805323 49.98289155 14.21269492 46.47567599 12.5 42.1875 C12.5 41.5275 12.5 40.8675 12.5 40.1875 C8.87 39.5275 5.24 38.8675 1.5 38.1875 C1.5 43.1375 1.5 48.0875 1.5 53.1875 C-8.55859375 53.28515625 -8.55859375 53.28515625 -11.5 53.1875 C-13.14087745 51.54662255 -12.62739755 49.66918938 -12.62939453 47.40820312 C-12.63254669 46.390448 -12.63569885 45.37269287 -12.63894653 44.32409668 C-12.6369223 43.21683228 -12.63489807 42.10956787 -12.6328125 40.96875 C-12.63376923 39.84053833 -12.63472595 38.71232666 -12.63571167 37.54992676 C-12.63639368 35.15909774 -12.63453797 32.76826689 -12.63037109 30.37744141 C-12.62502316 26.70340849 -12.63031543 23.02949783 -12.63671875 19.35546875 C-12.63605797 17.03906223 -12.63477682 14.72265578 -12.6328125 12.40625 C-12.63584885 10.74535339 -12.63584885 10.74535339 -12.63894653 9.05090332 C-12.63579437 8.03314819 -12.63264221 7.01539307 -12.62939453 5.96679688 C-12.62859894 5.06602417 -12.62780334 4.16525146 -12.62698364 3.23718262 C-12.29600574 -2.10523497 -4.02129295 0.00236547 0 0 Z M1.5 12.1875 C1.5 17.1375 1.5 22.0875 1.5 27.1875 C4.84125 27.31125 4.84125 27.31125 8.25 27.4375 C10.12945313 27.50710937 10.12945313 27.50710937 12.046875 27.578125 C15.53427805 27.47611336 15.53427805 27.47611336 17.921875 25.390625 C20.22087891 22.1811245 20.0498843 20.03669009 19.5 16.1875 C17.99192638 13.84490238 17.99192638 13.84490238 15.5 12.1875 C11.9964365 11.70425794 11.9964365 11.70425794 8.25 11.9375 C4.90875 12.06125 4.90875 12.06125 1.5 12.1875 Z " fill="#010101" transform="translate(521.5,217.8125)"/>
<path d="M0 0 C4.96712871 4.32406294 8.22256638 10.46955763 9 17 C9.57344253 25.60163789 7.92151566 32.07271005 2.375 38.8125 C-3.97313785 45.42610544 -10.79976572 47.69361864 -19.87890625 48.15625 C-28.19884007 47.73973266 -35.43086194 44.74300034 -41.37890625 38.90625 C-46.6397685 32.71998306 -48.28120827 26.07630158 -48 18 C-46.74924128 10.4068984 -43.94019612 3.82721864 -37.59375 -0.7265625 C-25.26177643 -8.37964021 -12.19139577 -8.34348648 0 0 Z M-30.62890625 9.40625 C-34.06502265 13.55700029 -34.65352504 17.32809462 -34.35546875 22.63671875 C-33.64541057 27.35743523 -31.96779711 30.10478767 -28.5 33.3125 C-24.22467216 36.19834629 -20.04383368 36.66634133 -15 36 C-11.29088596 34.64856043 -8.5932754 32.75148217 -6.125 29.625 C-3.907079 24.449851 -3.67163581 20.31770737 -5.2109375 14.9609375 C-7.01606027 10.47493932 -9.58335863 7.63604307 -14.0625 5.625 C-20.17813527 4.32380101 -25.83464067 5.26731569 -30.62890625 9.40625 Z " fill="#010101" transform="translate(606,224)"/>
<path d="M0 0 C9.6215625 -0.0309375 9.6215625 -0.0309375 19.4375 -0.0625 C21.46447021 -0.071604 23.49144043 -0.08070801 25.57983398 -0.09008789 C27.1769199 -0.09300703 28.77400655 -0.09555559 30.37109375 -0.09765625 C31.20805786 -0.10277222 32.04502197 -0.10788818 32.90734863 -0.11315918 C34.93858265 -0.11346924 36.96972471 -0.06240188 39 0 C41.60341656 2.60341656 40 7.31821299 40 11 C31.09 11 22.18 11 13 11 C13 14.3 13 17.6 13 21 C14.64871094 20.98839844 16.29742187 20.97679687 17.99609375 20.96484375 C20.14322804 20.95546762 22.29036355 20.94636723 24.4375 20.9375 C25.52611328 20.92912109 26.61472656 20.92074219 27.73632812 20.91210938 C28.77080078 20.90888672 29.80527344 20.90566406 30.87109375 20.90234375 C31.82943115 20.89710693 32.78776855 20.89187012 33.77514648 20.88647461 C36 21 36 21 37 22 C37.0979057 23.49738124 37.12974864 24.99942892 37.125 26.5 C37.12886719 27.72203125 37.12886719 27.72203125 37.1328125 28.96875 C37 31 37 31 36 32 C33.07749913 32.26621971 30.17868292 32.46989841 27.25 32.625 C26.43789063 32.6765625 25.62578125 32.728125 24.7890625 32.78125 C20.67883214 33.00885233 17.01738493 33.09416581 13 32 C13 35.3 13 38.6 13 42 C22.24 42 31.48 42 41 42 C41 45.63 41 49.26 41 53 C27.47 53 13.94 53 0 53 C0 35.51 0 18.02 0 0 Z " fill="#010101" transform="translate(390,218)"/>
<path d="M0 0 C9.6215625 -0.0309375 9.6215625 -0.0309375 19.4375 -0.0625 C21.46447021 -0.071604 23.49144043 -0.08070801 25.57983398 -0.09008789 C27.1769199 -0.09300703 28.77400655 -0.09555559 30.37109375 -0.09765625 C31.20805786 -0.10277222 32.04502197 -0.10788818 32.90734863 -0.11315918 C34.93858265 -0.11346924 36.96972471 -0.06240188 39 0 C41.60341656 2.60341656 40 7.31821299 40 11 C31.09 11 22.18 11 13 11 C13 14.3 13 17.6 13 21 C20.59 21 28.18 21 36 21 C36 24.63 36 28.26 36 32 C28.41 32 20.82 32 13 32 C13 35.3 13 38.6 13 42 C21.91 42 30.82 42 40 42 C40 45.63 40 49.26 40 53 C26.8 53 13.6 53 0 53 C0 35.51 0 18.02 0 0 Z " fill="#010101" transform="translate(165,218)"/>
<path d="M0 0 C0.97710937 -0.03738281 1.95421875 -0.07476562 2.9609375 -0.11328125 C5.625 0.3125 5.625 0.3125 7.11083984 1.93969727 C8.91232185 4.76275493 10.19979384 7.62234665 11.515625 10.703125 C11.78137833 11.3208226 12.04713165 11.9385202 12.32093811 12.57493591 C13.17741391 14.56864059 14.02637414 16.56544294 14.875 18.5625 C15.45938276 19.92835394 16.04426324 21.29399503 16.62963867 22.65942383 C17.49733168 24.68346552 18.36467975 26.70764399 19.22990417 28.73274231 C20.80485076 32.41618389 22.40109523 36.08850269 24.03515625 39.74609375 C24.36547852 40.48633789 24.69580078 41.22658203 25.03613281 41.98925781 C25.87128439 43.85228826 26.71084406 45.71334097 27.55078125 47.57421875 C28.625 50.3125 28.625 50.3125 28.625 53.3125 C24.335 53.3125 20.045 53.3125 15.625 53.3125 C11.625 45.6875 11.625 45.6875 11.625 42.3125 C4.035 42.3125 -3.555 42.3125 -11.375 42.3125 C-12.365 45.2825 -13.355 48.2525 -14.375 51.3125 C-14.705 51.9725 -15.035 52.6325 -15.375 53.3125 C-19.665 53.3125 -23.955 53.3125 -28.375 53.3125 C-27.65668894 49.72094472 -27.07720983 47.2956739 -25.65673828 44.07641602 C-25.30612335 43.27530899 -24.95550842 42.47420197 -24.5942688 41.64881897 C-24.21511322 40.79662277 -23.83595764 39.94442657 -23.4453125 39.06640625 C-23.05431366 38.17767319 -22.66331482 37.28894012 -22.26046753 36.37327576 C-21.43395889 34.49708612 -20.6050565 32.62194942 -19.77392578 30.74780273 C-18.50697096 27.89072006 -17.24697338 25.03065294 -15.98828125 22.16992188 C-15.18269705 20.34357114 -14.37672034 18.51739347 -13.5703125 16.69140625 C-13.19520538 15.84123428 -12.82009827 14.99106232 -12.43362427 14.11512756 C-6.23855628 0.15555455 -6.23855628 0.15555455 0 0 Z M-0.375 15.3125 C-1.37919637 17.7691947 -2.37850501 20.22768353 -3.375 22.6875 C-3.66117187 23.38617188 -3.94734375 24.08484375 -4.2421875 24.8046875 C-5.82024399 28.44135961 -5.82024399 28.44135961 -6.375 32.3125 C-2.82624947 32.50965281 -0.27942032 32.49081524 2.625 30.3125 C3.84359149 26.39122235 3.47190061 23.85320184 2.1875 20 C1.90003906 19.11699219 1.61257813 18.23398438 1.31640625 17.32421875 C1.08824219 16.66035156 0.86007812 15.99648437 0.625 15.3125 C0.295 15.3125 -0.035 15.3125 -0.375 15.3125 Z M4.625 28.3125 C5.625 30.3125 5.625 30.3125 5.625 30.3125 Z " fill="#010101" transform="translate(318.375,217.6875)"/>
<path d="M0 0 C31.03448276 0 31.03448276 0 39 4.8125 C43.2428705 9.45313961 45.1604893 14.70652668 45 21 C44.02638748 27.10061464 41.76686794 30.91801714 37.01171875 34.80859375 C31.64133762 37.98911073 26.67591185 38.26724567 20.625 38.125 C19.52091797 38.11146484 19.52091797 38.11146484 18.39453125 38.09765625 C16.5962112 38.07430144 14.79806089 38.03843836 13 38 C13 42.95 13 47.9 13 53 C8.71 53 4.42 53 0 53 C0 35.51 0 18.02 0 0 Z M13 11 C13 16.28 13 21.56 13 27 C16.34125 27.12375 16.34125 27.12375 19.75 27.25 C21.62945312 27.31960937 21.62945312 27.31960937 23.546875 27.390625 C27.02759808 27.2846028 27.02759808 27.2846028 29.421875 25.23828125 C32.01247442 21.56399048 31.56165901 19.42306467 31 15 C28.63296701 12.37935634 26.38642992 11.67728598 23 11 C21.25113019 10.93375493 19.49997252 10.91447405 17.75 10.9375 C15.39875 10.9684375 15.39875 10.9684375 13 11 Z " fill="#010101" transform="translate(459,218)"/>
<path d="M0 0 C-0.30921884 1.45903258 -0.62248799 2.91720722 -0.9375 4.375 C-1.11152344 5.18710938 -1.28554687 5.99921875 -1.46484375 6.8359375 C-2 9 -2 9 -3 11 C-3.60585937 10.7834375 -4.21171875 10.566875 -4.8359375 10.34375 C-10.76833746 8.37236786 -16.73480411 6.82743123 -23 8 C-24.77905579 9.4282602 -24.77905579 9.4282602 -26 11 C-25.67 11.99 -25.34 12.98 -25 14 C-22.3310999 15.15820193 -19.75865259 16.10173504 -17 17 C-15.9790625 17.34417969 -14.958125 17.68835938 -13.90625 18.04296875 C-10.9410448 19.0397671 -7.97166163 20.02265351 -5 21 C-1.64583335 22.11805555 -1.3475568 22.47486669 0.25 25.4375 C2.57348187 30.40617661 2.38536865 34.75733042 1 40 C-1.67107775 44.91478305 -5.82826223 47.23552476 -11 49 C-20.42273862 51.12771517 -29.83849498 49.56093026 -38.25 44.8125 C-39.1575 44.214375 -40.065 43.61625 -41 43 C-40.01 39.7 -39.02 36.4 -38 33 C-34 34 -34 34 -31.1875 35.5625 C-25.36859766 38.20279489 -18.25957431 37.21751417 -12 37 C-12.66 36.67 -13.32 36.34 -14 36 C-14.37382812 35.04480469 -14.74765625 34.08960938 -15.1328125 33.10546875 C-17.26204328 29.56417488 -18.79760121 28.93424508 -22.70703125 27.84179688 C-23.42246094 27.66712891 -24.13789063 27.49246094 -24.875 27.3125 C-29.71468944 26.03866553 -33.80190969 24.85139109 -38 22 C-38.99 21.34 -39.98 20.68 -41 20 C-40.505 18.515 -40.505 18.515 -40 17 C-40.03038908 15.39490391 -40.09640401 13.79029708 -40.1875 12.1875 C-40.19469988 7.23398422 -39.57726342 4.66243636 -36 1 C-25.62546172 -6.91741079 -11.08373668 -5.9681659 0 0 Z " fill="#010101" transform="translate(250,222)"/>
<path d="M0 0 C0.79719955 0.00222061 1.59439911 0.00444122 2.41575623 0.00672913 C3.31661453 0.00680466 4.21747284 0.00688019 5.14562988 0.00695801 C6.12478867 0.01211929 7.10394745 0.01728058 8.11277771 0.02259827 C9.11018478 0.02401321 10.10759186 0.02542816 11.13522339 0.02688599 C14.3348027 0.03250337 17.53431315 0.04505881 20.73387146 0.05775452 C22.89728191 0.06276728 25.06069345 0.06733057 27.22410583 0.07142639 C32.53988775 0.08247845 37.85561792 0.09975473 43.17137146 0.12025452 C43.17137146 4.08025452 43.17137146 8.04025452 43.17137146 12.12025452 C37.89137146 12.12025452 32.61137146 12.12025452 27.17137146 12.12025452 C27.17137146 25.65025452 27.17137146 39.18025452 27.17137146 53.12025452 C22.88137146 53.12025452 18.59137146 53.12025452 14.17137146 53.12025452 C12.86850208 49.21164638 13.1578387 45.57682537 13.29246521 41.51478577 C13.3160762 40.6755809 13.33968719 39.83637604 13.36401367 38.97174072 C13.44057422 36.29190332 13.52463127 33.61236044 13.60887146 30.93275452 C13.66209977 29.11571163 13.71484012 27.29865437 13.76707458 25.48158264 C13.89617908 21.02762016 14.03200717 16.5739073 14.17137146 12.12025452 C13.02797302 12.13185608 11.88457458 12.14345764 10.70652771 12.15541077 C9.21564392 12.16478739 7.72475837 12.17388773 6.23387146 12.18275452 C5.10175232 12.19532288 5.10175232 12.19532288 3.94676208 12.20814514 C2.02142833 12.21677893 0.09601565 12.17249784 -1.82862854 12.12025452 C-2.82862854 11.12025452 -2.82862854 11.12025452 -2.96144104 8.87025452 C-2.95886292 7.96275452 -2.95628479 7.05525452 -2.95362854 6.12025452 C-2.95620667 5.21275452 -2.95878479 4.30525452 -2.96144104 3.37025452 C-2.79916836 0.62116441 -2.75220935 0.18099116 0 0 Z " fill="#010101" transform="translate(253.82862854003906,217.87974548339844)"/>
<path d="M0 0 C0.87760986 -0.00315216 1.75521973 -0.00630432 2.65942383 -0.009552 C3.61357178 -0.00752777 4.56771973 -0.00550354 5.55078125 -0.00341797 C6.52362061 -0.00437469 7.49645996 -0.00533142 8.4987793 -0.00631714 C10.56005925 -0.00699905 12.62134133 -0.00514399 14.68261719 -0.00097656 C17.84965813 0.00437153 21.01655725 -0.00092119 24.18359375 -0.00732422 C26.1809899 -0.00666344 28.17838596 -0.00538228 30.17578125 -0.00341797 C31.1299292 -0.0054422 32.08407715 -0.00746643 33.06713867 -0.009552 C34.38355347 -0.00482376 34.38355347 -0.00482376 35.7265625 0 C36.50298096 0.00079559 37.27939941 0.00159119 38.0793457 0.00241089 C39.86328125 0.12939453 39.86328125 0.12939453 40.86328125 1.12939453 C40.93533636 2.81548419 40.94714193 4.50440112 40.92578125 6.19189453 C40.91675781 7.11099609 40.90773438 8.03009766 40.8984375 8.97705078 C40.88683594 9.68732422 40.87523437 10.39759766 40.86328125 11.12939453 C38.78069455 11.32501322 36.69716269 11.51058767 34.61328125 11.69189453 C32.87304688 11.84851563 32.87304688 11.84851563 31.09765625 12.00830078 C27.86328125 12.12939453 27.86328125 12.12939453 23.86328125 11.12939453 C23.86328125 24.98939453 23.86328125 38.84939453 23.86328125 53.12939453 C19.24328125 53.12939453 14.62328125 53.12939453 9.86328125 53.12939453 C10.19328125 39.59939453 10.52328125 26.06939453 10.86328125 12.12939453 C5.58328125 12.12939453 0.30328125 12.12939453 -5.13671875 12.12939453 C-5.234375 3.63330078 -5.234375 3.63330078 -5.13671875 1.12939453 C-3.59170424 -0.41561997 -2.15011655 0.00220322 0 0 Z " fill="#010101" transform="translate(345.13671875,217.87060546875)"/>
<path d="M0 0 C2.0625 0.4375 2.0625 0.4375 4 1 C4 1.33 4 1.66 4 2 C6.31 2.33 8.62 2.66 11 3 C11 5.97 11 8.94 11 12 C11.66 12 12.32 12 13 12 C12.67 9.03 12.34 6.06 12 3 C16.29 3 20.58 3 25 3 C25 7.66666667 25 12.33333333 25 17 C25.01160156 17.80695313 25.02320313 18.61390625 25.03515625 19.4453125 C25.04417969 20.32960938 25.05320312 21.21390625 25.0625 22.125 C25.07410156 23.01445313 25.08570313 23.90390625 25.09765625 24.8203125 C25 27 25 27 24 28 C22.14712498 28.07226502 20.29166122 28.0838122 18.4375 28.0625 C17.42558594 28.05347656 16.41367187 28.04445313 15.37109375 28.03515625 C14.19740234 28.01775391 14.19740234 28.01775391 13 28 C13 26.02 13 24.04 13 22 C12.34 22 11.68 22 11 22 C11 23.98 11 25.96 11 28 C7.37 28 3.74 28 0 28 C0 24.04 0 20.08 0 16 C1.98 15.67 3.96 15.34 6 15 C3.03 14.505 3.03 14.505 0 14 C-0.19393875 11.85473901 -0.37998676 9.70876323 -0.5625 7.5625 C-0.71912109 5.77005859 -0.71912109 5.77005859 -0.87890625 3.94140625 C-0.91886719 2.97074219 -0.95882813 2.00007813 -1 1 C-0.67 0.67 -0.34 0.34 0 0 Z M16 15 C16 15.33 16 15.66 16 16 C17.98 16 19.96 16 22 16 C22 15.67 22 15.34 22 15 C20.02 15 18.04 15 16 15 Z " fill="#050403" transform="translate(456,80)"/>
<path d="M0 0 C3.96 0.33 7.92 0.66 12 1 C12 4.3 12 7.6 12 11 C12.66 11 13.32 11 14 11 C14 7.7 14 4.4 14 1 C19.94 0.505 19.94 0.505 26 0 C27.29397884 2.58795767 26.90217496 4.08171425 26.5625 6.9375 C26.24463198 9.66955554 26 12.24559358 26 15 C26 18.66666667 26 22.33333333 26 26 C22.04 26 18.08 26 14 26 C13.67 24.02 13.34 22.04 13 20 C12.67 21.98 12.34 23.96 12 26 C8.37 26 4.74 26 1 26 C-0.04973814 21.80104745 0.27204845 19.20594226 1 15 C2.65 14.67 4.3 14.34 6 14 C4.35 13.67 2.7 13.34 1 13 C0.67 8.71 0.34 4.42 0 0 Z " fill="#030202" transform="translate(292,107)"/>
<path d="M0 0 C1.5 2.25 1.5 2.25 2.5 5.25 C1.77876953 5.80107422 1.77876953 5.80107422 1.04296875 6.36328125 C-1.11204917 8.99840443 -1.00672346 11.07505636 -1.1875 14.4375 C-1.290625 16.355625 -1.39375 18.27375 -1.5 20.25 C-8.43 20.25 -15.36 20.25 -22.5 20.25 C-22.335 18.64125 -22.17 17.0325 -22 15.375 C-21.50347264 9.98313242 -21.39436866 4.66067217 -21.5 -0.75 C-20.88253906 -0.73839844 -20.26507813 -0.72679688 -19.62890625 -0.71484375 C-15.19037675 -0.66755348 -11.00983972 -0.77770527 -6.625 -1.5 C-2.83212302 -1.98248612 -2.83212302 -1.98248612 0 0 Z M-9.5 9.25 C-9.5 9.58 -9.5 9.91 -9.5 10.25 C-7.52 10.25 -5.54 10.25 -3.5 10.25 C-3.5 9.92 -3.5 9.59 -3.5 9.25 C-5.48 9.25 -7.46 9.25 -9.5 9.25 Z " fill="#080707" transform="translate(392.5,64.75)"/>
<path d="M0 0 C0.6875 1.8125 0.6875 1.8125 1 4 C-0.375 5.5 -0.375 5.5 -2 7 C-2.35169068 8.32860925 -2.68770276 9.66158328 -3 11 C-3.66 11.33 -4.32 11.66 -5 12 C-4.505 13.485 -4.505 13.485 -4 15 C-3.4225 14.319375 -2.845 13.63875 -2.25 12.9375 C-1.13625 11.9784375 -1.13625 11.9784375 0 11 C2.140625 11.37890625 2.140625 11.37890625 4 12 C-1.95858519 20.36399765 -7.94164222 28.70783432 -14 37 C-16.64 36.01 -19.28 35.02 -22 34 C-22 34.66 -22 35.32 -22 36 C-25.3282731 37.66413655 -28.99733973 36.81867406 -32.625 36.5625 C-33.42679687 36.51029297 -34.22859375 36.45808594 -35.0546875 36.40429688 C-37.03679103 36.27451629 -39.01844499 36.13790265 -41 36 C-41 35.67 -41 35.34 -41 35 C-35.06 35 -29.12 35 -23 35 C-22.34 33.68 -21.68 32.36 -21 31 C-15.95976458 23.00024173 -10.43632521 15.30926252 -4.94970703 7.61254883 C-4.45196777 6.91282959 -3.95422852 6.21311035 -3.44140625 5.4921875 C-2.99482666 4.86683105 -2.54824707 4.24147461 -2.08813477 3.59716797 C-0.93421607 1.98010411 -0.93421607 1.98010411 0 0 Z " fill="#EE9030" transform="translate(366,28)"/>
<path d="M0 0 C0.5859375 1.90625 0.5859375 1.90625 1 4 C-0.375 5.5 -0.375 5.5 -2 7 C-2.35169068 8.32860925 -2.68770276 9.66158328 -3 11 C-3.99 11.495 -3.99 11.495 -5 12 C-4.67 12.99 -4.34 13.98 -4 15 C-3.4225 14.319375 -2.845 13.63875 -2.25 12.9375 C-1.13625 11.9784375 -1.13625 11.9784375 0 11 C1.32 11.33 2.64 11.66 4 12 C0.7 16.62 -2.6 21.24 -6 26 C-6.33 25.34 -6.66 24.68 -7 24 C-6.0625 21.875 -6.0625 21.875 -5 20 C-5.66 19.67 -6.32 19.34 -7 19 C-7.33 19.99 -7.66 20.98 -8 22 C-9.99571323 22.67939174 -11.99594773 23.34561559 -14 24 C-14.66 24.99 -15.32 25.98 -16 27 C-16.66 26.67 -17.32 26.34 -18 26 C-17.44856323 25.24493164 -17.44856323 25.24493164 -16.88598633 24.47460938 C-15.19202494 22.15176649 -13.50224782 19.82590961 -11.8125 17.5 C-11.23435547 16.70851563 -10.65621094 15.91703125 -10.06054688 15.1015625 C-6.49158739 10.18164095 -3.16140426 5.19160926 0 0 Z " fill="#E48A30" transform="translate(366,28)"/>
<path d="M0 0 C1.5 2.25 1.5 2.25 2.5 5.25 C-1.27312992 9.19463583 -1.27312992 9.19463583 -4.6640625 9.34765625 C-6.94270833 9.31510417 -9.22135417 9.28255208 -11.5 9.25 C-11.5 5.95 -11.5 2.65 -11.5 -0.75 C-3.17114094 -2.21979866 -3.17114094 -2.21979866 0 0 Z " fill="#0D0C0C" transform="translate(392.5,64.75)"/>
<path d="M0 0 C0.99 0 1.98 0 3 0 C3 1.65 3 3.3 3 5 C3.99 5 4.98 5 6 5 C6 5.99 6 6.98 6 8 C11.48675196 9.86783046 16.22192976 10.2358396 22 10 C22 9.01 22 8.02 22 7 C22.33 6.34 22.66 5.68 23 5 C24.0055761 6.45449401 25.00430435 7.91372443 26 9.375 C26.556875 10.18710938 27.11375 10.99921875 27.6875 11.8359375 C29 14 29 14 29 16 C27.865625 15.72285156 26.73125 15.44570312 25.5625 15.16015625 C24.04172152 14.79404291 22.52088505 14.42817037 21 14.0625 C20.25621094 13.88009766 19.51242187 13.69769531 18.74609375 13.50976562 C15.03403542 12.6220995 11.46167045 11.91430846 7.65625 11.5859375 C3.81813856 10.97085554 2.76852965 10.59350767 0.5 7.5625 C0.0153125 6.94503906 -0.469375 6.32757813 -0.96875 5.69140625 C-2 4 -2 4 -2 2 C-1.34 2 -0.68 2 0 2 C0 1.34 0 0.68 0 0 Z " fill="#DD893C" transform="translate(504,104)"/>
<path d="M0 0 C2.375 0.5 2.375 0.5 5 2 C6.08241903 4.66525288 6.49272107 7.1407915 7 10 C8.98 10 10.96 10 13 10 C13.33 9.34 13.66 8.68 14 8 C16.31 8.66 18.62 9.32 21 10 C17.20458337 12.21399303 13.24370579 13.00980198 9 14 C5.48453819 9.51750177 2.35287886 5.22861968 0 0 Z " fill="#DF8E40" transform="translate(423,112)"/>
<path d="M0 0 C9.68376158 0.50070054 19.35184646 1.00118234 29 2 C29 2.33 29 2.66 29 3 C28.44014404 3.02505615 27.88028809 3.0501123 27.3034668 3.07592773 C24.76458695 3.19203745 22.22606447 3.3146958 19.6875 3.4375 C18.80642578 3.47681641 17.92535156 3.51613281 17.01757812 3.55664062 C16.17001953 3.59853516 15.32246094 3.64042969 14.44921875 3.68359375 C13.27879028 3.73858032 13.27879028 3.73858032 12.0847168 3.79467773 C9.80670899 3.94125263 9.80670899 3.94125263 7 5 C6.67 4.34 6.34 3.68 6 3 C6.33 2.34 6.66 1.68 7 1 C4.69 1.33 2.38 1.66 0 2 C0 1.34 0 0.68 0 0 Z " fill="#DC8F42" transform="translate(369,24)"/>
<path d="M0 0 C0.33 0 0.66 0 1 0 C1.125 2.375 1.125 2.375 1 5 C0.34 5.66 -0.32 6.32 -1 7 C-1.64767793 9.57061311 -1.64767793 9.57061311 -2 12 C-2.99 11.67 -3.98 11.34 -5 11 C-5.66 12.65 -6.32 14.3 -7 16 C-8.32 15.67 -9.64 15.34 -11 15 C-9.19272453 12.49618432 -7.37833327 9.99761453 -5.5625 7.5 C-5.04623047 6.78457031 -4.52996094 6.06914063 -3.99804688 5.33203125 C-3.50498047 4.65527344 -3.01191406 3.97851562 -2.50390625 3.28125 C-2.04830322 2.65283203 -1.5927002 2.02441406 -1.12329102 1.37695312 C-0.56726196 0.69536133 -0.56726196 0.69536133 0 0 Z " fill="#E28D39" transform="translate(272,96)"/>
<path d="M0 0 C0.99 0 1.98 0 3 0 C3 1.65 3 3.3 3 5 C3.99 5 4.98 5 6 5 C6 5.99 6 6.98 6 8 C6.99 8.66 7.98 9.32 9 10 C7.35 10.33 5.7 10.66 4 11 C2.99406757 9.8803014 1.9954151 8.7540588 1 7.625 C0.443125 6.99851562 -0.11375 6.37203125 -0.6875 5.7265625 C-2 4 -2 4 -2 2 C-1.34 2 -0.68 2 0 2 C0 1.34 0 0.68 0 0 Z " fill="#ED9634" transform="translate(504,104)"/>
<path d="M0 0 C0.99 0.33 1.98 0.66 3 1 C1.68 3.97 0.36 6.94 -1 10 C-2.32 9.67 -3.64 9.34 -5 9 C-5.33 7.02 -5.66 5.04 -6 3 C-5.195625 2.87625 -4.39125 2.7525 -3.5625 2.625 C-2.716875 2.41875 -1.87125 2.2125 -1 2 C-0.67 1.34 -0.34 0.68 0 0 Z " fill="#ED8D26" transform="translate(359,47)"/>
<path d="M0 0 C2.475 0.495 2.475 0.495 5 1 C4.67 1.99 4.34 2.98 4 4 C4.99 4 5.98 4 7 4 C7 4.99 7 5.98 7 7 C5 9 5 9 2.375 9.125 C1.59125 9.08375 0.8075 9.0425 0 9 C0 6.03 0 3.06 0 0 Z " fill="#030403" transform="translate(371,65)"/>
<path d="M0 0 C1.24546405 2.49092811 0.7767578 3.41080733 0 6 C-0.99 6 -1.98 6 -3 6 C-3 6.66 -3 7.32 -3 8 C-6.3282731 9.66413655 -9.99733973 8.81867406 -13.625 8.5625 C-14.42679687 8.51029297 -15.22859375 8.45808594 -16.0546875 8.40429688 C-18.03679103 8.27451629 -20.01844499 8.13790265 -22 8 C-22 7.67 -22 7.34 -22 7 C-16.06 7 -10.12 7 -4 7 C-3.34 5.68 -2.68 4.36 -2 3 C-1.34 2.01 -0.68 1.02 0 0 Z " fill="#D99046" transform="translate(347,56)"/>
<path d="M0 0 C3.77639718 0.51032394 5.44722581 1.20766929 8 4 C6.08802961 4.70045456 4.17019565 5.384919 2.25 6.0625 C1.18265625 6.44535156 0.1153125 6.82820312 -0.984375 7.22265625 C-3.92280042 7.98010011 -5.22348948 8.07151741 -8 7 C-5.69 6.34 -3.38 5.68 -1 5 C-0.67 3.35 -0.34 1.7 0 0 Z " fill="#DC913B" transform="translate(381,136)"/>
<path d="M0 0 C0.99 0 1.98 0 3 0 C2.34938905 1.67299959 1.67966676 3.33859237 1 5 C0.731875 5.680625 0.46375 6.36125 0.1875 7.0625 C-1.41876839 9.68325369 -3.54564852 11.19153049 -6 13 C-5.67 10.69 -5.34 8.38 -5 6 C-5.66 5.67 -6.32 5.34 -7 5 C-6.01 4.67 -5.02 4.34 -4 4 C-3.67 4.33 -3.34 4.66 -3 5 C-2.01 4.67 -1.02 4.34 0 4 C0 2.68 0 1.36 0 0 Z " fill="#D78732" transform="translate(457,69)"/>
<path d="M0 0 C4.75 0.875 4.75 0.875 7 2 C7 2.66 7 3.32 7 4 C6.34 4 5.68 4 5 4 C5.33 6.97 5.66 9.94 6 13 C5.01 13 4.02 13 3 13 C3 9.7 3 6.4 3 3 C2.01 2.67 1.02 2.34 0 2 C0 1.34 0 0.68 0 0 Z " fill="#121112" transform="translate(466,94)"/>
<path d="M0 0 C0.33 0 0.66 0 1 0 C1 1.65 1 3.3 1 5 C-0.32 5.33 -1.64 5.66 -3 6 C-2.65213292 7.97536745 -2.65213292 7.97536745 -2 10 C-1.34 10.33 -0.68 10.66 0 11 C-2.6666419 12.33332095 -4.16680303 11.67102033 -7 11 C-5.5129879 6.40378078 -3.20187872 3.53027653 0 0 Z " fill="#DD8932" transform="translate(282,82)"/>
<path d="M0 0 C1.98 0 3.96 0 6 0 C6 1.98 6 3.96 6 6 C4.02 6 2.04 6 0 6 C0 4.02 0 2.04 0 0 Z " fill="#010001" transform="translate(383,66)"/>
<path d="M0 0 C1.4375 2.1875 1.4375 2.1875 1.4375 4.1875 C0.7775 4.1875 0.1175 4.1875 -0.5625 4.1875 C-0.5625 3.5275 -0.5625 2.8675 -0.5625 2.1875 C-1.2225 2.1875 -1.8825 2.1875 -2.5625 2.1875 C-2.5625 1.5275 -2.5625 0.8675 -2.5625 0.1875 C-4.8725 0.5175 -7.1825 0.8475 -9.5625 1.1875 C-9.5625 3.1675 -9.5625 5.1475 -9.5625 7.1875 C-11.32712683 4.09940305 -11.5625 2.95437864 -11.5625 -0.8125 C-3.41351476 -2.41443727 -3.41351476 -2.41443727 0 0 Z " fill="#2A1B0F" transform="translate(392.5625,64.8125)"/>
<path d="M0 0 C0.66 0 1.32 0 2 0 C2.268125 0.598125 2.53625 1.19625 2.8125 1.8125 C3.88236968 4.03033235 3.88236968 4.03033235 5.5625 5.5625 C7 7 7 7 8 10 C8.66 10.33 9.32 10.66 10 11 C10.625 13.0625 10.625 13.0625 11 15 C7.67472842 13.89157614 7.28880542 13.35396679 5.4375 10.5625 C4.03410104 8.46833146 2.79441988 6.79441988 1 5 C0.375 2.375 0.375 2.375 0 0 Z " fill="#CC7A2E" transform="translate(391,60)"/>
<path d="M0 0 C1.00692101 3.02076303 1.39261106 4.8591115 1 8 C-0.8125 9.875 -0.8125 9.875 -3 11 C-3.99 10.67 -4.98 10.34 -6 10 C-4.07119658 6.59244728 -2.1723491 3.25852365 0 0 Z " fill="#D78D3F" transform="translate(253,122)"/>
<path d="M0 0 C2.97 0.495 2.97 0.495 6 1 C6.12375 1.721875 6.2475 2.44375 6.375 3.1875 C6.9960013 5.98200584 7.77816771 8.41259045 9 11 C9.66 11.33 10.32 11.66 11 12 C10.01 12 9.02 12 8 12 C5.95703125 9.62890625 5.95703125 9.62890625 3.8125 6.5625 C3.09707031 5.55316406 2.38164062 4.54382813 1.64453125 3.50390625 C0 1 0 1 0 0 Z " fill="#DE8835" transform="translate(433,81)"/>
<path d="M0 0 C0.98484375 0.11988281 1.9696875 0.23976563 2.984375 0.36328125 C3.73203125 0.47027344 4.4796875 0.57726562 5.25 0.6875 C4.92 1.6775 4.59 2.6675 4.25 3.6875 C-2.68 3.1925 -2.68 3.1925 -9.75 2.6875 C-5.40352612 -0.57235541 -5.0019968 -0.65502339 0 0 Z " fill="#150C01" transform="translate(517.75,118.3125)"/>
<path d="M0 0 C0.99 0.33 1.98 0.66 3 1 C1.85821872 2.66944521 0.71147095 4.3354948 -0.4375 6 C-1.07558594 6.928125 -1.71367187 7.85625 -2.37109375 8.8125 C-2.90863281 9.534375 -3.44617188 10.25625 -4 11 C-4.33 11 -4.66 11 -5 11 C-5.25 8.75 -5.25 8.75 -5 6 C-3.0625 3.8125 -3.0625 3.8125 -1 2 C-0.67 1.34 -0.34 0.68 0 0 Z " fill="#DC8A32" transform="translate(295,89)"/>
<path d="M0 0 C0.226875 0.639375 0.45375 1.27875 0.6875 1.9375 C1.85250896 4.27193661 1.85250896 4.27193661 4.625 4.75 C5.40875 4.8325 6.1925 4.915 7 5 C7 4.34 7 3.68 7 3 C7.66 3 8.32 3 9 3 C8.34 4.32 7.68 5.64 7 7 C2.16743695 6.58578031 0.17320782 4.53586014 -3 1 C-2.01 0.67 -1.02 0.34 0 0 Z " fill="#CF8433" transform="translate(255,134)"/>
<path d="M0 0 C2.86724686 0.57344937 3.8614515 0.8614515 6 3 C6.66 2.67 7.32 2.34 8 2 C8.33 3.32 8.66 4.64 9 6 C7 7 7 7 4 7 C2.02 3.535 2.02 3.535 0 0 Z " fill="#E59635" transform="translate(342,128)"/>
<path d="M0 0 C4.455 0.99 4.455 0.99 9 2 C8.01 2.33 7.02 2.66 6 3 C5.67 3.66 5.34 4.32 5 5 C4.01 5.33 3.02 5.66 2 6 C1.34 4.02 0.68 2.04 0 0 Z " fill="#0E0A05" transform="translate(523,122)"/>
<path d="M0 0 C0.66 0 1.32 0 2 0 C2.66 0.66 3.32 1.32 4 2 C4.66 2 5.32 2 6 2 C6.66 4.97 7.32 7.94 8 11 C4.31993178 7.61831569 2.0214155 4.57478244 0 0 Z " fill="#DB903C" transform="translate(326,105)"/>
<path d="M0 0 C3 2 3 2 3.6875 5.125 C3.790625 6.07375 3.89375 7.0225 4 8 C2.68 8.33 1.36 8.66 0 9 C0 8.34 0 7.68 0 7 C-0.66 6.67 -1.32 6.34 -2 6 C-1.34 4.02 -0.68 2.04 0 0 Z " fill="#EB9E28" transform="translate(304,75)"/>
<path d="M0 0 C0.6875 1.8125 0.6875 1.8125 1 4 C-0.375 5.5 -0.375 5.5 -2 7 C-2.12375 7.680625 -2.2475 8.36125 -2.375 9.0625 C-2.684375 10.0215625 -2.684375 10.0215625 -3 11 C-5.5390625 12.12109375 -5.5390625 12.12109375 -8 13 C-7.50628906 12.22914062 -7.01257813 11.45828125 -6.50390625 10.6640625 C-5.86324219 9.66117188 -5.22257812 8.65828125 -4.5625 7.625 C-3.92441406 6.62726562 -3.28632813 5.62953125 -2.62890625 4.6015625 C-1.03100789 2.14169479 -1.03100789 2.14169479 0 0 Z " fill="#DD8F46" transform="translate(366,28)"/>
<path d="M0 0 C1.32 1.32 2.64 2.64 4 4 C3.34 5.32 2.68 6.64 2 8 C0.68 6.35 -0.64 4.7 -2 3 C-1.34 2.67 -0.68 2.34 0 2 C0 1.34 0 0.68 0 0 Z " fill="#E58F35" transform="translate(275,112)"/>
<path d="M0 0 C3.39417765 3.12621626 5.6062718 5.56541027 7 10 C4.97954558 9.39816251 2.97888961 8.72693904 1 8 C0.67 7.34 0.34 6.68 0 6 C0.66 6 1.32 6 2 6 C1.34 4.02 0.68 2.04 0 0 Z " fill="#D48A37" transform="translate(362,80)"/>
<path d="M0 0 C3.73884332 2.65654657 5.64978174 4.58110387 7 9 C6.01 9 5.02 9 4 9 C0 3.85714286 0 3.85714286 0 0 Z " fill="#040302" transform="translate(238,127)"/>
<path d="M0 0 C1.65 1.65 3.3 3.3 5 5 C4.67 5.99 4.34 6.98 4 8 C4 7.34 4 6.68 4 6 C1.03 5.505 1.03 5.505 -2 5 C-2 4.01 -2 3.02 -2 2 C-1.34 2 -0.68 2 0 2 C0 1.34 0 0.68 0 0 Z " fill="#E78F3B" transform="translate(515,94)"/>
<path d="M0 0 C1.32 0.33 2.64 0.66 4 1 C1.03 4.96 1.03 4.96 -2 9 C-2.33 8.34 -2.66 7.68 -3 7 C-2.06421005 4.64018187 -1.06652192 2.30368736 0 0 Z " fill="#D79043" transform="translate(366,39)"/>
<path d="M0 0 C0.99 0.66 1.98 1.32 3 2 C1.68 2.33 0.36 2.66 -1 3 C-1 4.32 -1 5.64 -1 7 C-2.65 7.66 -4.3 8.32 -6 9 C-4.02 6.03 -2.04 3.06 0 0 Z " fill="#E18B35" transform="translate(260,113)"/>
<path d="M0 0 C0.99 0 1.98 0 3 0 C3.33 1.65 3.66 3.3 4 5 C2.68 5 1.36 5 0 5 C-0.5625 3.0625 -0.5625 3.0625 -1 1 C-0.67 0.67 -0.34 0.34 0 0 Z " fill="#E1A32B" transform="translate(467,58)"/>
<path d="M0 0 C0.99 0 1.98 0 3 0 C3 0.66 3 1.32 3 2 C3.66 2 4.32 2 5 2 C5 2.66 5 3.32 5 4 C5.99 4.33 6.98 4.66 8 5 C7.01 5.99 6.02 6.98 5 8 C2 3.25 2 3.25 2 1 C1.34 0.67 0.68 0.34 0 0 Z " fill="#160E00" transform="translate(387,65)"/>
<path d="M0 0 C1.67542976 0.28604898 3.34385343 0.61781233 5 1 C4.34 2.98 3.68 4.96 3 7 C0.7522025 4.94766315 -0.0022242 3.99332739 -1 1 C-0.67 0.67 -0.34 0.34 0 0 Z " fill="#E08D3A" transform="translate(376,33)"/>
<path d="M0 0 C3.92300495 2.35380297 4.83857315 4.64464931 6 9 C5.34 9 4.68 9 4 9 C0 3.70588235 0 3.70588235 0 0 Z " fill="#D49846" transform="translate(433,85)"/>
<path d="M0 0 C-0.33 1.65 -0.66 3.3 -1 5 C-1.99 5 -2.98 5 -4 5 C-4.33 3.68 -4.66 2.36 -5 1 C-2 0 -2 0 0 0 Z " fill="#EF8C1E" transform="translate(284,87)"/>
<path d="M0 0 C0.99 0.33 1.98 0.66 3 1 C0.525 4.465 0.525 4.465 -2 8 C-2.33 6.68 -2.66 5.36 -3 4 C-2.01 3.67 -1.02 3.34 0 3 C0 2.01 0 1.02 0 0 Z " fill="#D98F3D" transform="translate(354,57)"/>
<path d="M0 0 C0.66 1.32 1.32 2.64 2 4 C0.68 4.33 -0.64 4.66 -2 5 C-2.66 3.68 -3.32 2.36 -4 1 C-2.68 0.67 -1.36 0.34 0 0 Z " fill="#E3942E" transform="translate(353,137)"/>
<path d="M0 0 C1.32 0 2.64 0 4 0 C4.66 2.31 5.32 4.62 6 7 C2.58841744 5.86280581 1.88145399 4.95657056 0 2 C0 1.34 0 0.68 0 0 Z " fill="#E09344" transform="translate(502,106)"/>
<path d="M0 0 C1.32 0.33 2.64 0.66 4 1 C4 1.99 4 2.98 4 4 C4.66 4 5.32 4 6 4 C5.67 5.32 5.34 6.64 5 8 C4.16382818 6.8562364 3.33113541 5.70992861 2.5 4.5625 C2.0359375 3.92441406 1.571875 3.28632812 1.09375 2.62890625 C0 1 0 1 0 0 Z " fill="#DF903F" transform="translate(487,85)"/>
<path d="M0 0 C0.39832031 0.51175781 0.79664063 1.02351563 1.20703125 1.55078125 C0.87703125 2.21078125 0.54703125 2.87078125 0.20703125 3.55078125 C-0.12296875 3.22078125 -0.45296875 2.89078125 -0.79296875 2.55078125 C-2.47480823 2.31791117 -4.16421035 2.13813959 -5.85546875 1.98828125 C-7.23412109 1.86259766 -7.23412109 1.86259766 -8.640625 1.734375 C-9.70603516 1.64349609 -9.70603516 1.64349609 -10.79296875 1.55078125 C-10.79296875 1.22078125 -10.79296875 0.89078125 -10.79296875 0.55078125 C-9.36150497 0.1336461 -7.92237989 -0.25726845 -6.48046875 -0.63671875 C-5.67996094 -0.85714844 -4.87945312 -1.07757813 -4.0546875 -1.3046875 C-1.79296875 -1.44921875 -1.79296875 -1.44921875 0 0 Z " fill="#412703" transform="translate(481.79296875,80.44921875)"/>
<path d="M0 0 C0.33 1.32 0.66 2.64 1 4 C-1.4375 6.75 -1.4375 6.75 -4 9 C-4.66 8.67 -5.32 8.34 -6 8 C-4.02 5.36 -2.04 2.72 0 0 Z " fill="#D98A43" transform="translate(354,46)"/>
<path d="M0 0 C0.66 0 1.32 0 2 0 C2.66 1.98 3.32 3.96 4 6 C2.68 6 1.36 6 0 6 C-0.38218767 4.34385343 -0.71395102 2.67542976 -1 1 C-0.67 0.67 -0.34 0.34 0 0 Z " fill="#E88C23" transform="translate(524,108)"/>
<path d="M0 0 C0.66 0 1.32 0 2 0 C2.33 2.64 2.66 5.28 3 8 C0.9375 5.6875 0.9375 5.6875 -1 3 C-0.67 2.01 -0.34 1.02 0 0 Z " fill="#E1882C" transform="translate(380,39)"/>
<path d="M0 0 C0.66 0.33 1.32 0.66 2 1 C2 1.99 2 2.98 2 4 C1.34 4 0.68 4 0 4 C-0.33 3.01 -0.66 2.02 -1 1 C-0.67 0.67 -0.34 0.34 0 0 Z " fill="#5A1A00" transform="translate(453,82)"/>
<path d="M0 0 C1.65 0 3.3 0 5 0 C5 0.33 5 0.66 5 1 C3.35 1 1.7 1 0 1 C0 0.67 0 0.34 0 0 Z " fill="#2A1111" transform="translate(385,62)"/>
<path d="M0 0 C0 3 0 3 0 3 Z " fill="#000000" transform="translate(548,252)"/>
<path d="M0 0 C1 4 1 4 1 4 Z " fill="#000000" transform="translate(504,231)"/>
<path d="M0 0 C0.66 0.66 1.32 1.32 2 2 C1.34 2 0.68 2 0 2 C0 1.34 0 0.68 0 0 Z " fill="#000000" transform="translate(314,246)"/>
<path d="M0 0 C0.66 0.66 1.32 1.32 2 2 C1.34 2 0.68 2 0 2 C0 1.34 0 0.68 0 0 Z " fill="#2A2A00" transform="translate(255,140)"/>
<path d="M0 0 C3 1 3 1 3 1 Z " fill="#000000" transform="translate(527,121)"/>
<path d="" fill="#000000" transform="translate(0,0)"/>
<path d="" fill="#000000" transform="translate(0,0)"/>
<path d="M0 0 C2 1 2 1 2 1 Z " fill="#000000" transform="translate(211,268)"/>
<path d="M0 0 C2 1 2 1 2 1 Z " fill="#000000" transform="translate(209,267)"/>
<path d="" fill="#000000" transform="translate(0,0)"/>
<path d="" fill="#000000" transform="translate(0,0)"/>
<path d="M0 0 C2 1 2 1 2 1 Z " fill="#000000" transform="translate(220,249)"/>
<path d="" fill="#000000" transform="translate(0,0)"/>
<path d="" fill="#000000" transform="translate(0,0)"/>
<path d="" fill="#000000" transform="translate(0,0)"/>
<path d="" fill="#000000" transform="translate(0,0)"/>
<path d="" fill="#000000" transform="translate(0,0)"/>
<path d="" fill="#000000" transform="translate(0,0)"/>
<path d="M0 0 C2 1 2 1 2 1 Z " fill="#000000" transform="translate(259,143)"/>
<path d="M0 0 C2 1 2 1 2 1 Z " fill="#000000" transform="translate(315,106)"/>
<path d="" fill="#000000" transform="translate(0,0)"/>
<path d="" fill="#000000" transform="translate(0,0)"/>
<path d="" fill="#000000" transform="translate(0,0)"/>
<path d="" fill="#000000" transform="translate(0,0)"/>
<path d="" fill="#000000" transform="translate(0,0)"/>
<path d="" fill="#000000" transform="translate(0,0)"/>
<path d="" fill="#000000" transform="translate(0,0)"/>
<path d="" fill="#000000" transform="translate(0,0)"/>
<path d="" fill="#000000" transform="translate(0,0)"/>
<path d="" fill="#000000" transform="translate(0,0)"/>
<path d="" fill="#000000" transform="translate(0,0)"/>
<path d="" fill="#000000" transform="translate(0,0)"/>
<path d="" fill="#000000" transform="translate(0,0)"/>
<path d="" fill="#000000" transform="translate(0,0)"/>
<path d="" fill="#000000" transform="translate(0,0)"/>
<path d="" fill="#000000" transform="translate(0,0)"/>
<path d="" fill="#000000" transform="translate(0,0)"/>
<path d="" fill="#000000" transform="translate(0,0)"/>
<path d="" fill="#000000" transform="translate(0,0)"/>
<path d="" fill="#000000" transform="translate(0,0)"/>
<path d="" fill="#000000" transform="translate(0,0)"/>
<path d="" fill="#000000" transform="translate(0,0)"/>
<path d="" fill="#000000" transform="translate(0,0)"/>
<path d="" fill="#000000" transform="translate(0,0)"/>
<path d="" fill="#000000" transform="translate(0,0)"/>
<path d="" fill="#000000" transform="translate(0,0)"/>
<path d="" fill="#000000" transform="translate(0,0)"/>
<path d="" fill="#000000" transform="translate(0,0)"/>
<path d="" fill="#000000" transform="translate(0,0)"/>
<path d="" fill="#000000" transform="translate(0,0)"/>
<path d="" fill="#000000" transform="translate(0,0)"/>
<path d="" fill="#000000" transform="translate(0,0)"/>
<path d="" fill="#000000" transform="translate(0,0)"/>
<path d="" fill="#000000" transform="translate(0,0)"/>
<path d="" fill="#000000" transform="translate(0,0)"/>
<path d="" fill="#808000" transform="translate(0,0)"/>
<path d="" fill="#808000" transform="translate(0,0)"/>
<path d="" fill="#000000" transform="translate(0,0)"/>
<path d="" fill="#000000" transform="translate(0,0)"/>
<path d="" fill="#000000" transform="translate(0,0)"/>
<path d="" fill="#000000" transform="translate(0,0)"/>
<path d="" fill="#000000" transform="translate(0,0)"/>
<path d="" fill="#000000" transform="translate(0,0)"/>
<path d="" fill="#000000" transform="translate(0,0)"/>
<path d="" fill="#000000" transform="translate(0,0)"/>
<path d="" fill="#FFFF00" transform="translate(0,0)"/>
<path d="" fill="#000000" transform="translate(0,0)"/>
</svg>
