<?xml version="1.0" encoding="UTF-8"?>
<svg version="1.1" xmlns="http://www.w3.org/2000/svg" width="798" height="313">
<path d="M0 0 C1.03699036 0.09348724 2.07398071 0.18697449 3.14239502 0.28329468 C6.45724607 0.58815833 9.76703954 0.93029739 13.078125 1.2734375 C15.29143617 1.48291853 17.50497809 1.68997663 19.71875 1.89453125 C24.71765241 2.36299365 29.71461092 2.84360429 34.70640564 3.38308716 C36.44139054 3.55868903 38.17964375 3.70474049 39.91969299 3.8197937 C45.85284243 4.26614367 45.85284243 4.26614367 48.23608398 6.18310547 C48.59516846 6.82908691 48.95425293 7.47506836 49.32421875 8.140625 C49.73736328 8.84574219 50.15050781 9.55085938 50.57617188 10.27734375 C50.96869141 11.01855469 51.36121094 11.75976562 51.765625 12.5234375 C52.18521484 13.25691406 52.60480469 13.99039062 53.03710938 14.74609375 C53.81454954 16.10754399 54.57911727 17.47649068 55.32592773 18.85498047 C56.2456147 20.50078327 57.28232888 22.07974332 58.328125 23.6484375 C62.03673046 23.19228908 65.74500178 22.73348948 69.453125 22.2734375 C70.54794189 22.13768311 71.64275879 22.00192871 72.77075195 21.86206055 C79.73665987 20.99151511 86.68331766 20.05386052 93.62109375 18.98046875 C98.67754207 18.36026946 98.67754207 18.36026946 101.328125 18.6484375 C103.00634766 20.33813477 103.00634766 20.33813477 104.4921875 22.71484375 C105.05139893 23.58560547 105.61061035 24.45636719 106.18676758 25.35351562 C106.76966553 26.29646484 107.35256348 27.23941406 107.953125 28.2109375 C109.19639296 30.15155285 110.44250971 32.09034592 111.69140625 34.02734375 C112.30580566 34.98656738 112.92020508 35.94579102 113.55322266 36.93408203 C115.95389329 40.605424 118.51205744 44.13818002 121.140625 47.6484375 C125.28133528 53.2041468 129.26478894 58.84171119 133.1796875 64.55859375 C135.99513761 68.6077229 138.93289328 72.56082879 141.89453125 76.50390625 C143.328125 78.6484375 143.328125 78.6484375 143.328125 80.6484375 C143.946875 80.8959375 144.565625 81.1434375 145.203125 81.3984375 C147.7768422 82.91238879 148.0618515 83.98926316 149.328125 86.6484375 C150.30392782 88.22616216 151.30500925 89.78847493 152.328125 91.3359375 C152.84375 92.12355469 153.359375 92.91117187 153.890625 93.72265625 C155.19281509 95.76796916 155.19281509 95.76796916 157.328125 96.6484375 C157.328125 97.6384375 157.328125 98.6284375 157.328125 99.6484375 C132.17778331 96.82123281 132.17778331 96.82123281 125.83984375 91.59765625 C124.390625 89.3359375 124.390625 89.3359375 123.48828125 87.22265625 C122.08289084 84.1042984 120.17962062 81.70418839 118.1003418 79.0012207 C116.12084198 76.37324994 114.24839488 73.68655452 112.3828125 70.9765625 C111.69832031 69.98269531 111.01382813 68.98882812 110.30859375 67.96484375 C108.89515304 65.90630766 107.48372072 63.84639124 106.07421875 61.78515625 C105.39230469 60.79644531 104.71039063 59.80773437 104.0078125 58.7890625 C103.39663574 57.89735352 102.78545898 57.00564453 102.15576172 56.08691406 C100.38826627 53.6020374 100.38826627 53.6020374 98.17626953 51.53027344 C95.82748347 49.13866935 95.19970388 46.84422674 94.328125 43.6484375 C91.07172841 42.70572748 91.07172841 42.70572748 87.328125 42.6484375 C84.61207897 44.76091775 82.86897678 46.56673394 81.328125 49.6484375 C80.328125 51.6484375 80.328125 51.6484375 78.1171875 53.81640625 C74.42791345 57.56251786 71.37892735 61.69407513 68.2578125 65.91601562 C67.01516508 67.54699036 65.67760106 69.10468702 64.328125 70.6484375 C61.328125 70.6484375 61.328125 70.6484375 59.20703125 68.63671875 C58.44261719 67.75371094 57.67820312 66.87070313 56.890625 65.9609375 C55.74787109 64.65576172 55.74787109 64.65576172 54.58203125 63.32421875 C52.45398345 60.79785352 50.37727172 58.2390444 48.328125 55.6484375 C49.75000254 60.74219661 52.02440046 64.5785688 54.953125 68.8984375 C59.328125 75.39383627 59.328125 75.39383627 59.328125 77.6484375 C60.318125 77.6484375 61.308125 77.6484375 62.328125 77.6484375 C62.7303125 79.22625 62.7303125 79.22625 63.140625 80.8359375 C64.52793945 85.28994703 65.93551306 88.41966226 69.453125 91.5234375 C71.99125963 94.39999008 71.90284789 96.90773476 72.328125 100.6484375 C69.41456659 101.51471155 66.49808172 102.36674756 63.578125 103.2109375 C62.753125 103.45779297 61.928125 103.70464844 61.078125 103.95898438 C60.27890625 104.18779297 59.4796875 104.41660156 58.65625 104.65234375 C57.9230957 104.86705322 57.18994141 105.0817627 56.43457031 105.30297852 C54.04061719 105.69558905 52.59559577 105.48270127 50.328125 104.6484375 C47.3903379 101.7106504 45.58923835 98.33807304 43.66015625 94.703125 C40.31350363 88.52555011 36.64199561 82.58651753 32.890625 76.6484375 C31.94606445 75.14410156 31.94606445 75.14410156 30.98242188 73.609375 C28.4698161 69.61193026 25.95070242 65.61923218 23.40185547 61.64477539 C22.78842285 60.68821045 22.17499023 59.73164551 21.54296875 58.74609375 C20.99632568 57.89797119 20.44968262 57.04984863 19.88647461 56.17602539 C18.25549643 53.53063653 16.77889058 50.83373841 15.328125 48.0859375 C12.93825257 43.61517352 10.22215204 39.57252736 7.26171875 35.46484375 C2.69871909 28.81853516 -1.33078514 21.76764085 -5.3125 14.76171875 C-6.49891426 12.52229379 -6.49891426 12.52229379 -8.671875 11.6484375 C-8.98705078 12.62683594 -8.98705078 12.62683594 -9.30859375 13.625 C-11.19372872 17.80578644 -13.80455402 21.31640581 -16.484375 25.0234375 C-17.00580078 25.75304687 -17.52722656 26.48265625 -18.06445312 27.234375 C-20.0757513 30.04667707 -22.08929137 32.85652728 -24.13818359 35.64160156 C-26.07878295 38.2974524 -27.62453029 40.50640336 -28.671875 43.6484375 C-28.011875 43.9784375 -27.351875 44.3084375 -26.671875 44.6484375 C-25.66499628 46.64498333 -24.66614847 48.64558447 -23.671875 50.6484375 C-22.36158875 52.5133848 -21.00429959 54.34592152 -19.609375 56.1484375 C-16.16472682 60.66462933 -12.78525314 65.2135727 -9.484375 69.8359375 C-9.09306396 70.38121094 -8.70175293 70.92648438 -8.29858398 71.48828125 C-6.06298148 74.62400423 -3.90052563 77.7987251 -1.77734375 81.01171875 C1.30031246 85.65051202 4.54361419 90.15466498 7.828125 94.6484375 C10.01205635 97.63642909 12.17694814 100.6367899 14.328125 103.6484375 C14.91464844 104.44894531 15.50117188 105.24945313 16.10546875 106.07421875 C16.66363281 106.86183594 17.22179687 107.64945312 17.796875 108.4609375 C18.30669922 109.16863281 18.81652344 109.87632813 19.34179688 110.60546875 C20.328125 112.6484375 20.328125 112.6484375 20.10794067 114.67988586 C19.328125 116.6484375 19.328125 116.6484375 15.83740234 118.18823242 C14.28515426 118.68604759 12.72677752 119.16499266 11.1640625 119.62890625 C10.33862946 119.88722733 9.51319641 120.1455484 8.66275024 120.41169739 C6.91153564 120.95636991 5.15780102 121.49299476 3.40185547 122.0222168 C0.72979049 122.82789733 -1.93418519 123.65663458 -4.59765625 124.49023438 C-6.30165768 125.01700389 -8.00607289 125.54243713 -9.7109375 126.06640625 C-10.89884384 126.43357002 -10.89884384 126.43357002 -12.11074829 126.80815125 C-16.63261019 128.16562416 -20.98004949 129.10803209 -25.671875 129.6484375 C-25.96578125 129.184375 -26.2596875 128.7203125 -26.5625 128.2421875 C-32.33809831 119.34643838 -38.85753567 110.97738397 -45.27514648 102.54077148 C-47.91693857 99.05089598 -50.43131186 95.56246824 -52.734375 91.8359375 C-55.01834542 88.31982515 -57.02045175 86.73496507 -60.671875 84.6484375 C-60.86910156 83.54048828 -60.86910156 83.54048828 -61.0703125 82.41015625 C-61.82509995 78.94499569 -63.33743674 77.01908495 -65.484375 74.2109375 C-70.02492378 68.19188262 -70.02492378 68.19188262 -71.859375 65.2734375 C-73.85710296 62.38017631 -76.12023747 60.05831739 -78.671875 57.6484375 C-79.80355131 59.8309561 -80.79551352 61.97298862 -81.671875 64.2734375 C-82.671875 66.6484375 -82.671875 66.6484375 -84.671875 68.6484375 C-85.70349108 70.63231458 -86.70711118 72.63120406 -87.671875 74.6484375 C-88.661875 74.6484375 -89.651875 74.6484375 -90.671875 74.6484375 C-90.94 75.3496875 -91.208125 76.0509375 -91.484375 76.7734375 C-93.36059591 81.31586707 -95.02393368 85.29233149 -98.671875 88.6484375 C-100.91719844 91.24459272 -102.62201806 93.54438824 -104.109375 96.6484375 C-105.671875 99.6484375 -105.671875 99.6484375 -108.109375 102.0234375 C-110.39945502 104.36937313 -111.34148726 105.77221461 -112.671875 108.6484375 C-114.41923397 112.41197989 -116.60568057 114.81810418 -119.671875 117.6484375 C-120.70001111 118.96019736 -121.71271932 120.2854268 -122.671875 121.6484375 C-126.56194273 120.26062955 -129.63746208 118.4332148 -132.984375 116.0234375 C-134.30888672 115.07597656 -134.30888672 115.07597656 -135.66015625 114.109375 C-136.32402344 113.62726563 -136.98789063 113.14515625 -137.671875 112.6484375 C-136.796875 107.8984375 -136.796875 107.8984375 -135.671875 105.6484375 C-135.011875 105.6484375 -134.351875 105.6484375 -133.671875 105.6484375 C-133.40375 105.09671875 -133.135625 104.545 -132.859375 103.9765625 C-131.54390916 101.39755711 -130.13338338 98.89761682 -128.671875 96.3984375 C-128.15625 95.50640625 -127.640625 94.614375 -127.109375 93.6953125 C-126.635 93.01984375 -126.160625 92.344375 -125.671875 91.6484375 C-125.011875 91.6484375 -124.351875 91.6484375 -123.671875 91.6484375 C-123.424375 90.9265625 -123.176875 90.2046875 -122.921875 89.4609375 C-121.55080857 86.37603804 -119.78172271 84.27601537 -117.671875 81.6484375 C-116.60745776 79.99620775 -115.56634645 78.32877235 -114.546875 76.6484375 C-111.86824848 72.37634233 -108.97742123 68.3560275 -105.859375 64.3984375 C-101.16413656 58.43426455 -96.95108203 52.21513534 -92.80078125 45.86328125 C-91.74697266 44.27193359 -91.74697266 44.27193359 -90.671875 42.6484375 C-90.00447548 41.56468086 -90.00447548 41.56468086 -89.32359314 40.45903015 C-87.671875 38.6484375 -87.671875 38.6484375 -85.56959534 38.28181458 C-84.75973679 38.3419725 -83.94987823 38.40213043 -83.11547852 38.46411133 C-81.73242271 38.54687065 -81.73242271 38.54687065 -80.32142639 38.63130188 C-79.32461349 38.70527695 -78.3278006 38.77925201 -77.30078125 38.85546875 C-75.17790954 38.94998353 -73.0548495 39.04034236 -70.93164062 39.12695312 C-67.58929053 39.28086909 -64.25664922 39.45925565 -60.92016602 39.71118164 C-48.68706768 41.01994995 -48.68706768 41.01994995 -37.5375061 37.0869751 C-33.77825252 33.11466925 -31.18746527 28.56683103 -28.73428345 23.70785522 C-27.39517023 21.1120612 -25.77807461 18.79674756 -24.05078125 16.4453125 C-22.62666074 14.39993136 -21.20380522 12.35400998 -19.79101562 10.30078125 C-19.31986328 9.62660156 -18.84871094 8.95242187 -18.36328125 8.2578125 C-17.96310791 7.67999023 -17.56293457 7.10216797 -17.15063477 6.50683594 C-16.66264404 5.89356445 -16.17465332 5.28029297 -15.671875 4.6484375 C-14.68127075 3.288396 -14.68127075 3.288396 -13.6706543 1.90087891 C-9.15440208 -1.4913659 -5.43204134 -0.60088078 0 0 Z M88.328125 37.6484375 C87.998125 38.3084375 87.668125 38.9684375 87.328125 39.6484375 C88.318125 39.3184375 89.308125 38.9884375 90.328125 38.6484375 C89.668125 38.3184375 89.008125 37.9884375 88.328125 37.6484375 Z M42.328125 47.6484375 C42.658125 48.6384375 42.988125 49.6284375 43.328125 50.6484375 C43.328125 49.6584375 43.328125 48.6684375 43.328125 47.6484375 C42.998125 47.6484375 42.668125 47.6484375 42.328125 47.6484375 Z M44.328125 50.6484375 C44.658125 51.6384375 44.988125 52.6284375 45.328125 53.6484375 C45.328125 52.6584375 45.328125 51.6684375 45.328125 50.6484375 C44.998125 50.6484375 44.668125 50.6484375 44.328125 50.6484375 Z " fill="#2F5E51" transform="translate(391.671875,15.3515625)"/>
<path d="M0 0 C1.8958736 1.55392229 1.8958736 1.55392229 4.140625 2.4921875 C5.9453125 3.48046875 5.9453125 3.48046875 6.9453125 6.48046875 C4.6328125 7.16796875 4.6328125 7.16796875 1.9453125 7.48046875 C1.36136719 6.81337891 1.36136719 6.81337891 0.765625 6.1328125 C-1.99784443 3.62434132 -5.31986075 3.1594866 -8.8671875 2.35546875 C-9.56650391 2.18660156 -10.26582031 2.01773438 -10.98632812 1.84375 C-48.77608629 -7.1352945 -85.99600119 4.49950966 -121.93267822 15.81396484 C-125.48511961 16.92975453 -129.04160205 18.03250968 -132.59765625 19.13671875 C-147.03950322 23.614565 -147.03950322 23.614565 -161.4375 28.23046875 C-201.54512926 41.31317576 -246.74919858 51.35459966 -286.36328125 31.8515625 C-292.50267895 28.48075943 -297.63512186 24.51558794 -302.703125 19.69140625 C-305.07983394 17.38298602 -305.07983394 17.38298602 -308.0078125 15.21484375 C-311.69795701 12.17044518 -313.98042376 8.41784275 -316.4296875 4.35546875 C-316.87957031 3.64003906 -317.32945312 2.92460937 -317.79296875 2.1875 C-321.0546875 -3.11651073 -321.0546875 -3.11651073 -321.0546875 -6.51953125 C-317.70289432 -5.40226686 -317.03761345 -4.56503158 -314.8671875 -1.89453125 C-305.03728705 9.5431583 -293.06473708 16.03251371 -278.9296875 20.85546875 C-278.23891113 21.09402588 -277.54813477 21.33258301 -276.83642578 21.57836914 C-266.12277955 25.02141898 -255.12184318 25.85008407 -243.9296875 25.79296875 C-242.75172607 25.7873291 -241.57376465 25.78168945 -240.36010742 25.77587891 C-218.24510005 25.4714679 -197.24194311 19.36667358 -176.0546875 13.48046875 C-174.98065674 13.18350098 -173.90662598 12.8865332 -172.80004883 12.58056641 C-168.46416721 11.30701953 -164.19062522 9.88835605 -159.91015625 8.44140625 C-158.16473981 7.8553905 -156.41929632 7.26945532 -154.67382812 6.68359375 C-151.94338154 5.76513265 -149.21326542 4.84571116 -146.48364258 3.92480469 C-143.83501252 3.03190697 -141.18517405 2.14267529 -138.53515625 1.25390625 C-137.30396309 0.83677872 -137.30396309 0.83677872 -136.04789734 0.41122437 C-130.28133253 -1.51953125 -130.28133253 -1.51953125 -128.0546875 -1.51953125 C-128.0546875 -2.17953125 -128.0546875 -2.83953125 -128.0546875 -3.51953125 C-127.16394531 -3.61621094 -126.27320313 -3.71289062 -125.35546875 -3.8125 C-120.74425871 -4.47157408 -116.30392818 -5.7055537 -111.80566406 -6.89428711 C-76.49509365 -16.18641515 -31.43053412 -24.61495235 0 0 Z " fill="#2F5D51" transform="translate(567.0546875,129.51953125)"/>
<path d="M0 0 C3.96516109 -0.07493036 7.93004014 -0.12896449 11.89575195 -0.16479492 C13.89744576 -0.18705458 15.89894275 -0.22520146 17.90039062 -0.26367188 C27.27734463 -0.33453047 36.85746018 0.20587675 44 7 C44.79236225 9.62443794 45.24361485 12.13558264 45.578125 14.85546875 C45.71734375 15.56316406 45.8565625 16.27085937 46 17 C46.66 17.33 47.32 17.66 48 18 C47.34 18 46.68 18 46 18 C46.10441406 19.22976562 46.10441406 19.22976562 46.2109375 20.484375 C46.374688 23.74378965 46.4279454 26.76231209 46 30 C43.1875 32.5625 43.1875 32.5625 40 34 C38.20605554 35.62351109 38.20605554 35.62351109 37 37 C38.83333333 40.16666667 38.83333333 40.16666667 42 42 C43.12669331 44.02556261 44.01513079 46.09736387 44.9375 48.22265625 C45.94302301 50.34324028 45.94302301 50.34324028 49 51 C49 51.66 49 52.32 49 53 C46.03 53.495 46.03 53.495 43 54 C43 54.66 43 55.32 43 56 C38.15904166 56.56952451 35.82586841 54.82781578 32 52 C31.01 51.34 30.02 50.68 29 50 C29 49.01 29 48.02 29 47 C28.34 47 27.68 47 27 47 C26.01 44.69 25.02 42.38 24 40 C20.7 39.67 17.4 39.34 14 39 C14 43.62 14 48.24 14 53 C7.74676102 55.08441299 6.056125 55.04415948 0 54 C-1.00506441 50.98480678 -1.0915426 49.11941717 -1.02172852 45.9777832 C-1.00163223 44.95695145 -0.98153595 43.93611969 -0.96083069 42.88435364 C-0.93379562 41.78427475 -0.90676056 40.68419586 -0.87890625 39.55078125 C-0.85529526 38.4230278 -0.83168427 37.29527435 -0.80735779 36.13334656 C-0.73069718 32.52627042 -0.64668276 28.91940767 -0.5625 25.3125 C-0.50928174 22.86915112 -0.45654133 20.42579177 -0.40429688 17.98242188 C-0.27507873 11.98814881 -0.13982023 5.99403463 0 0 Z M14 11 C14 16.61 14 22.22 14 28 C20.61850232 28.27199325 25.18822804 28.26912173 31 25 C33.35618542 22.11400612 33.35618542 22.11400612 32.8125 18.5 C31.9018572 14.5223583 31.9018572 14.5223583 29 12 C24.09931037 10.36643679 19.14261524 10.94470306 14 11 Z " fill="#020202" transform="translate(523,216)"/>
<path d="M0 0 C6.1890621 4.80924955 9.8687019 11.21061918 10.9296875 18.96484375 C11.24332345 26.16835323 10.76777131 34.29176715 6.015625 40.0234375 C4.05757782 41.73583877 2.0684249 43.23906954 -0.0703125 44.71484375 C-0.7303125 45.37484375 -1.3903125 46.03484375 -2.0703125 46.71484375 C-3.0603125 46.71484375 -4.0503125 46.71484375 -5.0703125 46.71484375 C-5.5653125 47.70484375 -5.5653125 47.70484375 -6.0703125 48.71484375 C-11.20108664 52.13535985 -17.61118871 51.1943796 -23.578125 50.3671875 C-25.78185947 49.91031572 -27.91344001 49.35629282 -30.0703125 48.71484375 C-30.80507813 48.50859375 -31.53984375 48.30234375 -32.296875 48.08984375 C-35.63485605 47.02168981 -37.71447779 46.19776229 -39.8203125 43.33984375 C-40.2328125 42.47359375 -40.6453125 41.60734375 -41.0703125 40.71484375 C-42.153125 39.41546875 -42.153125 39.41546875 -43.2578125 38.08984375 C-45.0703125 35.71484375 -45.0703125 35.71484375 -45.0703125 32.71484375 C-45.7303125 32.71484375 -46.3903125 32.71484375 -47.0703125 32.71484375 C-48.02650983 28.71688483 -48.1742717 25.00680453 -48.1328125 20.90234375 C-48.12378906 19.74089844 -48.11476563 18.57945312 -48.10546875 17.3828125 C-48.09386719 16.50238281 -48.08226562 15.62195313 -48.0703125 14.71484375 C-47.4103125 14.71484375 -46.7503125 14.71484375 -46.0703125 14.71484375 C-45.8228125 13.22984375 -45.8228125 13.22984375 -45.5703125 11.71484375 C-43.85431311 5.7571839 -39.03026744 1.57416563 -33.90625 -1.64453125 C-22.76812665 -7.4013141 -10.68395695 -6.63211667 0 0 Z M-28.0703125 9.71484375 C-29.0190625 10.31296875 -29.9678125 10.91109375 -30.9453125 11.52734375 C-34.47792309 16.82625963 -33.85177382 22.54998225 -33.0703125 28.71484375 C-31.860115 32.24244071 -29.75166889 34.09542885 -27.0078125 36.58984375 C-21.97090382 38.51887261 -16.17221867 38.88935191 -11.05859375 36.953125 C-8.63692048 35.46963024 -7.24847192 34.2344754 -6.3203125 31.52734375 C-6.2378125 30.92921875 -6.1553125 30.33109375 -6.0703125 29.71484375 C-5.4103125 29.38484375 -4.7503125 29.05484375 -4.0703125 28.71484375 C-3.5458125 20.76317223 -3.5458125 20.76317223 -5.6328125 13.21484375 C-9.60604983 9.13972854 -12.9308908 6.97757975 -18.6328125 6.27734375 C-22.48190329 6.76722803 -24.79225487 7.6482422 -28.0703125 9.71484375 Z " fill="#020202" transform="translate(621.0703125,220.28515625)"/>
<path d="M0 0 C14.19 0 28.38 0 43 0 C43 3.3 43 6.6 43 10 C42 11 42 11 39.40795898 11.11352539 C38.28204346 11.10828857 37.15612793 11.10305176 35.99609375 11.09765625 C34.78115234 11.09443359 33.56621094 11.09121094 32.31445312 11.08789062 C31.03505859 11.07951172 29.75566406 11.07113281 28.4375 11.0625 C27.15423828 11.05798828 25.87097656 11.05347656 24.54882812 11.04882812 C21.36583978 11.03699545 18.18294238 11.02051068 15 11 C15 14.3 15 17.6 15 21 C16.64871094 20.98839844 18.29742187 20.97679687 19.99609375 20.96484375 C22.14322804 20.95546762 24.29036355 20.94636723 26.4375 20.9375 C27.52611328 20.92912109 28.61472656 20.92074219 29.73632812 20.91210938 C30.77080078 20.90888672 31.80527344 20.90566406 32.87109375 20.90234375 C33.82943115 20.89710693 34.78776855 20.89187012 35.77514648 20.88647461 C38 21 38 21 39 22 C39.07205511 23.68608966 39.08386068 25.37500659 39.0625 27.0625 C39.05347656 27.98160156 39.04445312 28.90070313 39.03515625 29.84765625 C39.02355469 30.55792969 39.01195312 31.26820313 39 32 C36.45017567 33.27491216 34.83534576 33.02596616 31.9921875 32.87890625 C31.00605469 32.83056641 30.01992187 32.78222656 29.00390625 32.73242188 C27.97136719 32.67634766 26.93882812 32.62027344 25.875 32.5625 C24.83472656 32.51029297 23.79445312 32.45808594 22.72265625 32.40429688 C20.14818761 32.27439249 17.57405702 32.13782019 15 32 C15 35.63 15 39.26 15 43 C24.24 43 33.48 43 43 43 C43 46.96 43 50.92 43 55 C37.51904631 55.02473355 32.03812517 55.04287596 26.55712891 55.05493164 C24.69286534 55.05995792 22.8286057 55.06677992 20.96435547 55.07543945 C18.28351876 55.08757963 15.6027342 55.09324539 12.921875 55.09765625 C12.08944275 55.10281754 11.2570105 55.10797882 10.39935303 55.11329651 C9.61884583 55.11337204 8.83833862 55.11344757 8.03417969 55.11352539 C7.35023132 55.115746 6.66628296 55.11796661 5.96160889 55.12025452 C3.80933217 54.98831129 2.02380827 54.76062536 0 54 C-0.495 52.515 -0.495 52.515 -1 51 C-0.34 51 0.32 51 1 51 C0.67 34.17 0.34 17.34 0 0 Z " fill="#020202" transform="translate(168,216)"/>
<path d="M0 0 C6.72375 -0.020625 13.4475 -0.04125 20.375 -0.0625 C23.55842041 -0.07615601 23.55842041 -0.07615601 26.80615234 -0.09008789 C28.48274675 -0.09300769 30.15934187 -0.0955561 31.8359375 -0.09765625 C33.14848511 -0.1053302 33.14848511 -0.1053302 34.48754883 -0.11315918 C40.7718564 -0.1140718 40.7718564 -0.1140718 43 1 C42.34 4.3 41.68 7.6 41 11 C32.09 11 23.18 11 14 11 C14 14.3 14 17.6 14 21 C21.59 21 29.18 21 37 21 C37.9004793 24.6019172 38.16315639 27.32898129 38 31 C37 32 37 32 34.77514648 32.11352539 C33.81680908 32.10828857 32.85847168 32.10305176 31.87109375 32.09765625 C30.31938477 32.09282227 30.31938477 32.09282227 28.73632812 32.08789062 C27.64771484 32.07951172 26.55910156 32.07113281 25.4375 32.0625 C23.7987793 32.05573242 23.7987793 32.05573242 22.12695312 32.04882812 C19.41791505 32.03699826 16.70898401 32.02051543 14 32 C14.020625 33.0725 14.04125 34.145 14.0625 35.25 C14 39 14 39 13 43 C22.57 43 32.14 43 42 43 C43 47 43 47 41 54 C27.47 54 13.94 54 0 54 C0 36.18 0 18.36 0 0 Z " fill="#020202" transform="translate(400,216)"/>
<path d="M0 0 C1.77503906 0.03480469 1.77503906 0.03480469 3.5859375 0.0703125 C5.36871094 0.09738281 5.36871094 0.09738281 7.1875 0.125 C8.10273438 0.14820313 9.01796875 0.17140625 9.9609375 0.1953125 C9.9609375 0.8553125 9.9609375 1.5153125 9.9609375 2.1953125 C10.6209375 2.5253125 11.2809375 2.8553125 11.9609375 3.1953125 C12.67737002 4.83287255 13.3043683 6.50950104 13.8984375 8.1953125 C16.88612548 16.24869235 20.37126986 24.06251889 23.86303711 31.90820312 C26.99815152 38.96318177 30.02269487 46.05605214 32.9609375 53.1953125 C31.9609375 54.1953125 31.9609375 54.1953125 28.58203125 54.29296875 C27.18746673 54.28629619 25.79292007 54.27433782 24.3984375 54.2578125 C23.68751953 54.25330078 22.97660156 54.24878906 22.24414062 54.24414062 C20.48303737 54.23232114 18.72197714 54.21438513 16.9609375 54.1953125 C16.81785156 53.42703125 16.67476563 52.65875 16.52734375 51.8671875 C15.94928982 49.14036756 15.03062794 46.76256956 13.9609375 44.1953125 C13.9609375 43.8653125 13.9609375 43.5353125 13.9609375 43.1953125 C6.7009375 43.1953125 -0.5590625 43.1953125 -8.0390625 43.1953125 C-8.0390625 44.1853125 -8.0390625 45.1753125 -8.0390625 46.1953125 C-8.3690625 46.8553125 -8.6990625 47.5153125 -9.0390625 48.1953125 C-9.6990625 48.1953125 -10.3590625 48.1953125 -11.0390625 48.1953125 C-11.1834375 48.9996875 -11.3278125 49.8040625 -11.4765625 50.6328125 C-12.0390625 53.1953125 -12.0390625 53.1953125 -13.0390625 54.1953125 C-14.99329116 54.34698398 -16.95415979 54.41711246 -18.9140625 54.4453125 C-20.51894531 54.48398437 -20.51894531 54.48398437 -22.15625 54.5234375 C-25.0390625 54.1953125 -25.0390625 54.1953125 -26.921875 52.6796875 C-27.47488281 51.94492187 -27.47488281 51.94492187 -28.0390625 51.1953125 C-27.4821875 50.5971875 -26.9253125 49.9990625 -26.3515625 49.3828125 C-23.15164238 44.97211179 -21.17512663 40.18908405 -19.0390625 35.1953125 C-18.5234375 33.9990625 -18.0078125 32.8028125 -17.4765625 31.5703125 C-17.0021875 30.4565625 -16.5278125 29.3428125 -16.0390625 28.1953125 C-15.68585938 27.42960937 -15.33265625 26.66390625 -14.96875 25.875 C-14.60007812 25.07320312 -14.23140625 24.27140625 -13.8515625 23.4453125 C-13.33529297 22.33929688 -13.33529297 22.33929688 -12.80859375 21.2109375 C-11.86072608 19.08778565 -11.86072608 19.08778565 -12.0390625 16.1953125 C-11.3790625 15.8653125 -10.7190625 15.5353125 -10.0390625 15.1953125 C-8.43272059 11.78183595 -7.12871274 8.47481032 -5.9765625 4.8828125 C-4.67177993 1.1424358 -4.01779884 0.25821329 0 0 Z M-0.0390625 22.1953125 C-0.7079657 23.67346912 -1.37412609 25.15286722 -2.0390625 26.6328125 C-2.5959375 27.86837891 -2.5959375 27.86837891 -3.1640625 29.12890625 C-4.10404982 30.97478242 -4.10404982 30.97478242 -4.0390625 32.1953125 C0.5809375 32.1953125 5.2009375 32.1953125 9.9609375 32.1953125 C8.46761547 26.76096755 8.46761547 26.76096755 4.9609375 22.6953125 C2.81945839 22.07404469 2.81945839 22.07404469 -0.0390625 22.1953125 Z " fill="#020202" transform="translate(324.0390625,215.8046875)"/>
<path d="M0 0 C1.37998767 -0.01145285 2.75993343 -0.0317974 4.13964844 -0.06152344 C13.51825466 -0.26351724 21.23977381 -0.07181813 28.68237305 6.07641602 C29.12581055 6.64360352 29.56924805 7.21079102 30.02612305 7.79516602 C30.49018555 8.36235352 30.95424805 8.92954102 31.43237305 9.51391602 C35.31346358 15.83454918 33.52031044 24.33585429 32.52612305 31.29516602 C31.86612305 31.29516602 31.20612305 31.29516602 30.52612305 31.29516602 C30.52612305 31.95516602 30.52612305 32.61516602 30.52612305 33.29516602 C28.76831055 34.27172852 27.01049805 35.24829102 25.25268555 36.22485352 C23.36486165 37.30413875 23.36486165 37.30413875 21.52612305 39.29516602 C19.37133789 39.5222168 19.37133789 39.5222168 16.73706055 39.49047852 C15.79604492 39.4840332 14.8550293 39.47758789 13.88549805 39.47094727 C12.40823242 39.44581055 12.40823242 39.44581055 10.90112305 39.42016602 C9.90854492 39.41114258 8.9159668 39.40211914 7.89331055 39.39282227 C5.43734171 39.36920718 2.98185136 39.33627401 0.52612305 39.29516602 C0.60991211 40.29418945 0.69370117 41.29321289 0.7800293 42.32250977 C0.88186523 43.61286133 0.98370117 44.90321289 1.08862305 46.23266602 C1.19303711 47.52043945 1.29745117 48.80821289 1.4050293 50.13500977 C1.44499023 51.17786133 1.48495117 52.22071289 1.52612305 53.29516602 C-2.04069938 56.86198844 -8.44244725 54.93577818 -13.47387695 55.29516602 C-13.14387695 37.80516602 -12.81387695 20.31516602 -12.47387695 2.29516602 C-13.13387695 1.96516602 -13.79387695 1.63516602 -14.47387695 1.29516602 C-10.22236804 -0.83058844 -4.67603638 0.02697819 0 0 Z M1.52612305 11.29516602 C0.02455431 14.29830349 0.433311 17.08584124 0.46362305 20.42016602 C0.47264648 21.70149414 0.48166992 22.98282227 0.4909668 24.30297852 C0.50256836 25.29040039 0.51416992 26.27782227 0.52612305 27.29516602 C2.75420464 27.40370585 4.98382237 27.48099909 7.21362305 27.54516602 C8.45499023 27.59157227 9.69635742 27.63797852 10.9753418 27.68579102 C15.11309891 27.23059221 16.69388591 26.29776329 19.52612305 23.29516602 C20.27612305 19.79516602 20.27612305 19.79516602 19.52612305 16.29516602 C17.659038 13.93019162 16.20550874 12.63485886 13.52612305 11.29516602 C11.485573 11.22450985 9.44278048 11.21094626 7.40112305 11.23266602 C6.30541992 11.24168945 5.2097168 11.25071289 4.08081055 11.26000977 C2.81624023 11.27741211 2.81624023 11.27741211 1.52612305 11.29516602 Z " fill="#020202" transform="translate(483.473876953125,215.704833984375)"/>
<path d="M0 0 C1.23082475 2.40160926 1.11817688 3.54712636 0.44140625 6.140625 C0.15136719 6.83671875 -0.13867188 7.5328125 -0.4375 8.25 C-0.86869141 9.30960938 -0.86869141 9.30960938 -1.30859375 10.390625 C-1.53675781 10.92171875 -1.76492187 11.4528125 -2 12 C-4.36155426 11.45502594 -6.54388038 10.79660983 -8.8203125 9.9453125 C-12.33529162 8.90031871 -15.21783973 8.80036408 -18.875 8.875 C-20.02742188 8.89304688 -21.17984375 8.91109375 -22.3671875 8.9296875 C-23.23601562 8.95289063 -24.10484375 8.97609375 -25 9 C-25 10.65 -25 12.3 -25 14 C-23.56350916 14.58581405 -22.12572175 15.16844844 -20.6875 15.75 C-19.77871094 16.12125 -18.86992187 16.4925 -17.93359375 16.875 C-15.02963153 18.02975248 -15.02963153 18.02975248 -12.09765625 18.875 C-5.98941157 20.75188177 -2.63086674 22.66183882 0.9765625 28 C2.47527618 30.92878399 3.22643847 32.90880081 2.546875 36.18359375 C-1.69303553 48.17588972 -1.69303553 48.17588972 -7.58203125 51.27734375 C-15.70753817 53.70580704 -25.02945807 52.50924468 -33 50 C-33.928125 49.896875 -34.85625 49.79375 -35.8125 49.6875 C-38 49 -38 49 -39.8125 46.625 C-41 44 -41 44 -41 41 C-41.66 40.67 -42.32 40.34 -43 40 C-40.75 37.5 -40.75 37.5 -38 35 C-33.60600266 35 -31.82172994 36.00951566 -28 38 C-25.08834438 38.89865914 -22.4170552 39.16206476 -19.375 39.1875 C-18.59898437 39.20167969 -17.82296875 39.21585937 -17.0234375 39.23046875 C-14.77163007 39.18665836 -14.77163007 39.18665836 -13 37 C-12.01 36.505 -12.01 36.505 -11 36 C-13.95849259 32.60321221 -15.64697843 31.7738705 -20 31 C-22.30478101 30.0417398 -24.55879702 29.0017456 -26.81640625 27.9375 C-28.87062806 27.0555443 -30.81997295 26.47456371 -33 26 C-33 25.34 -33 24.68 -33 24 C-33.8971875 23.690625 -33.8971875 23.690625 -34.8125 23.375 C-37.93741749 21.41076615 -38.70703876 19.42634728 -40 16 C-40.59266405 10.56724617 -39.92389156 6.64382777 -37 2 C-25.50858614 -5.62165569 -12.44293279 -6.08070924 0 0 Z " fill="#020202" transform="translate(256,219)"/>
<path d="M0 0 C15.18 0 30.36 0 46 0 C46 3.63 46 7.26 46 11 C40.72 11 35.44 11 30 11 C30.00785522 12.90060181 30.00785522 12.90060181 30.01586914 14.83959961 C30.03391514 19.5228607 30.04543053 24.20611871 30.05493164 28.8894043 C30.05997278 30.91968298 30.06680557 32.94995802 30.07543945 34.98022461 C30.08751467 37.89177347 30.09323034 40.8032745 30.09765625 43.71484375 C30.10281754 44.6283812 30.10797882 45.54191864 30.11329651 46.48313904 C30.11349168 48.65575427 30.06211805 50.82827296 30 53 C28.18880181 54.81119819 25.50218608 54.21518878 23.0625 54.25 C21.98097656 54.27578125 20.89945312 54.3015625 19.78515625 54.328125 C18.86605469 54.21984375 17.94695312 54.1115625 17 54 C14.94815144 50.92222716 14.75626232 50.42648435 14.86474609 46.98754883 C14.88491791 46.18694534 14.90508972 45.38634186 14.9258728 44.56147766 C14.95806915 43.70201035 14.9902655 42.84254303 15.0234375 41.95703125 C15.04846344 41.0734343 15.07348938 40.18983734 15.09927368 39.27946472 C15.18145849 36.45675201 15.27805372 33.63474056 15.375 30.8125 C15.43324113 28.89911721 15.49054437 26.98570562 15.546875 25.07226562 C15.68703506 20.38110694 15.84012083 15.69052637 16 11 C10.72 11 5.44 11 0 11 C0 7.37 0 3.74 0 0 Z " fill="#020202" transform="translate(349,216)"/>
<path d="M0 0 C0.83272934 0.00222061 1.66545868 0.00444122 2.52342224 0.00672913 C3.46432205 0.00680466 4.40522186 0.00688019 5.37463379 0.00695801 C6.39754013 0.01211929 7.42044647 0.01728058 8.47434998 0.02259827 C9.51614914 0.02401321 10.5579483 0.02542816 11.63131714 0.02688599 C14.97355467 0.03250372 18.31572629 0.04505922 21.65794373 0.05775452 C23.91770839 0.06276723 26.17747409 0.06733053 28.4372406 0.07142639 C33.99000054 0.08247891 39.54271094 0.09975542 45.09544373 0.12025452 C45.09544373 3.75025452 45.09544373 7.38025452 45.09544373 11.12025452 C39.81544373 11.12025452 34.53544373 11.12025452 29.09544373 11.12025452 C29.10068054 12.3517926 29.10591736 13.58333069 29.11131287 14.85218811 C29.12937926 19.41061174 29.14088176 23.96903219 29.15037537 28.52748108 C29.15541182 30.50242138 29.16224124 32.47735795 29.17088318 34.45228577 C29.1829788 37.28693056 29.18867882 40.12152617 29.19309998 42.95619202 C29.19826126 43.8426944 29.20342255 44.72919678 29.20874023 45.64256287 C29.20931543 51.8925111 29.20931543 51.8925111 28.09544373 54.12025452 C26.11634975 54.14712005 24.13715402 54.16658827 22.15794373 54.18275452 C21.05579529 54.19435608 19.95364685 54.20595764 18.81809998 54.21791077 C16.09544373 54.12025452 16.09544373 54.12025452 15.09544373 53.12025452 C15.00670238 50.01774251 14.98025917 46.93757331 14.99778748 43.83509827 C14.99920242 42.90427933 15.00061737 41.97346039 15.0020752 41.01443481 C15.007692 38.02884261 15.02024733 35.04332422 15.03294373 32.05775452 C15.03795656 30.03887539 15.04251984 28.01999509 15.0466156 26.00111389 C15.0576669 21.0407988 15.07494277 16.08053919 15.09544373 11.12025452 C13.95204529 11.13185608 12.80864685 11.14345764 11.63059998 11.15541077 C10.13971618 11.16478739 8.64883064 11.17388773 7.15794373 11.18275452 C6.02582458 11.19532288 6.02582458 11.19532288 4.87083435 11.20814514 C2.94550059 11.21677893 1.02008792 11.17249784 -0.90455627 11.12025452 C-2.47807508 9.54673571 -2.28915777 7.79070961 -2.52955627 5.62025452 C-2.6249469 4.80556702 -2.72033752 3.99087952 -2.81861877 3.15150452 C-2.86115784 2.14603577 -2.86115784 2.14603577 -2.90455627 1.12025452 C-1.90455627 0.12025452 -1.90455627 0.12025452 0 0 Z " fill="#010101" transform="translate(259.90455627441406,215.87974548339844)"/>
<path d="M0 0 C3.96 0 7.92 0 12 0 C12.33 1.32 12.66 2.64 13 4 C13.66 4.33 14.32 4.66 15 5 C15 3.35 15 1.7 15 0 C18.96 0 22.92 0 27 0 C27 3.96 27 7.92 27 12 C23.04 12 19.08 12 15 12 C14.67 11.01 14.34 10.02 14 9 C13.01 10.485 13.01 10.485 12 12 C7.72335094 13.16635883 4.30487872 12.92247401 0 12 C0.33 9.03 0.66 6.06 1 3 C0.34 3 -0.32 3 -1 3 C-0.67 2.01 -0.34 1.02 0 0 Z " fill="#2E5B52" transform="translate(467,76)"/>
<path d="M0 0 C1.51400391 0.01740234 1.51400391 0.01740234 3.05859375 0.03515625 C4.07050781 0.04417969 5.08242188 0.05320312 6.125 0.0625 C7.29869141 0.07990234 7.29869141 0.07990234 8.49609375 0.09765625 C8.49609375 2.40765625 8.49609375 4.71765625 8.49609375 7.09765625 C9.48609375 7.09765625 10.47609375 7.09765625 11.49609375 7.09765625 C11.49609375 4.78765625 11.49609375 2.47765625 11.49609375 0.09765625 C13.30851427 0.07078346 15.12104608 0.0513191 16.93359375 0.03515625 C17.94292969 0.02355469 18.95226562 0.01195313 19.9921875 0 C22.49609375 0.09765625 22.49609375 0.09765625 23.49609375 1.09765625 C23.49609375 4.72765625 23.49609375 8.35765625 23.49609375 12.09765625 C14.91609375 12.09765625 6.33609375 12.09765625 -2.50390625 12.09765625 C-2.83390625 8.46765625 -3.16390625 4.83765625 -3.50390625 1.09765625 C-2.50390625 0.09765625 -2.50390625 0.09765625 0 0 Z " fill="#305E53" transform="translate(470.50390625,89.90234375)"/>
<path d="M0 0 C3.35179318 1.11726439 4.01707405 1.95449967 6.1875 4.625 C13.7268675 13.40007296 21.62370464 18.20533543 32 23 C31.67 23.66 31.34 24.32 31 25 C29.68 25 28.36 25 27 25 C27.33 25.99 27.66 26.98 28 28 C27.34 28.66 26.68 29.32 26 30 C26.33 30.66 26.66 31.32 27 32 C14.20789662 27.75926628 5.89211249 14.36708427 0 3 C0 2.01 0 1.02 0 0 Z " fill="#2D554B" transform="translate(246,123)"/>
<path d="M0 0 C3.63 0 7.26 0 11 0 C11 0.66 11 1.32 11 2 C11.66 2 12.32 2 13 2 C12.34 4.97 11.68 7.94 11 11 C11.66 11.33 12.32 11.66 13 12 C11.18880181 13.81119819 8.50218608 13.21518878 6.0625 13.25 C4.98097656 13.27578125 3.89945312 13.3015625 2.78515625 13.328125 C1.86605469 13.21984375 0.94695312 13.1115625 0 13 C-2.29013653 9.5647952 -2.17842973 8.014669 -2 4 C-1.34 4 -0.68 4 0 4 C0 2.68 0 1.36 0 0 Z " fill="#2D564D" transform="translate(315,102)"/>
<path d="M0 0 C2.908125 0.0309375 2.908125 0.0309375 5.875 0.0625 C5.875 4.3525 5.875 8.6425 5.875 13.0625 C-2.62109375 13.16015625 -2.62109375 13.16015625 -5.125 13.0625 C-6.86105513 11.32644487 -6.78111982 8.85700504 -7.1875 6.5 C-7.36410156 5.48808594 -7.54070312 4.47617188 -7.72265625 3.43359375 C-7.85542969 2.65113281 -7.98820312 1.86867188 -8.125 1.0625 C-5.36047967 -0.31976016 -3.0788637 -0.03275387 0 0 Z " fill="#315B4F" transform="translate(306.125,101.9375)"/>
<path d="M0 0 C1.65322266 0.01740234 1.65322266 0.01740234 3.33984375 0.03515625 C4.99693359 0.04869141 4.99693359 0.04869141 6.6875 0.0625 C7.54214844 0.07410156 8.39679688 0.08570312 9.27734375 0.09765625 C9.30421654 1.91007677 9.3236809 3.72260858 9.33984375 5.53515625 C9.35144531 6.54449219 9.36304688 7.55382812 9.375 8.59375 C9.27734375 11.09765625 9.27734375 11.09765625 8.27734375 12.09765625 C6.61305324 12.19589562 4.94452444 12.22739256 3.27734375 12.22265625 C1.91609375 12.22652344 1.91609375 12.22652344 0.52734375 12.23046875 C-1.72265625 12.09765625 -1.72265625 12.09765625 -2.72265625 11.09765625 C-2.98195337 9.43815465 -3.1814664 7.76905132 -3.34765625 6.09765625 C-3.44304687 5.19015625 -3.5384375 4.28265625 -3.63671875 3.34765625 C-3.66507812 2.60515625 -3.6934375 1.86265625 -3.72265625 1.09765625 C-2.72265625 0.09765625 -2.72265625 0.09765625 0 0 Z " fill="#2F594F" transform="translate(302.72265625,116.90234375)"/>
<path d="M0 0 C0.33 1.32 0.66 2.64 1 4 C0.34 4 -0.32 4 -1 4 C-1 5.98 -1 7.96 -1 10 C-0.34 10.33 0.32 10.66 1 11 C-1.99480917 11.8723412 -4.63575911 12.10829766 -7.75 12.0625 C-8.54921875 12.05347656 -9.3484375 12.04445312 -10.171875 12.03515625 C-10.77515625 12.02355469 -11.3784375 12.01195312 -12 12 C-13.91384609 8.49128216 -14.04276246 7.18632214 -13.125 3.1875 C-12.75375 2.135625 -12.3825 1.08375 -12 0 C-7.6835078 -0.76173392 -4.25566547 -1.16063604 0 0 Z " fill="#2D544A" transform="translate(327,117)"/>
<path d="M0 0 C6.55875 -0.020625 13.1175 -0.04125 19.875 -0.0625 C21.94507324 -0.071604 24.01514648 -0.08070801 26.14794922 -0.09008789 C27.78352799 -0.09300772 29.41910748 -0.09555612 31.0546875 -0.09765625 C32.33484741 -0.1053302 32.33484741 -0.1053302 33.64086914 -0.11315918 C39.7718564 -0.1140718 39.7718564 -0.1140718 42 1 C41.67 2.32 41.34 3.64 41 5 C40.34 5 39.68 5 39 5 C39 4.01 39 3.02 39 2 C26.46 2 13.92 2 1 2 C1 16.85 1 31.7 1 47 C0.67 47 0.34 47 0 47 C0 31.49 0 15.98 0 0 Z " fill="#0A0A0A" transform="translate(401,216)"/>
<path d="M0 0 C3.35179318 1.11726439 4.01707405 1.95449967 6.1875 4.625 C9.26985542 8.27016342 12.55539269 11.38564065 16.203125 14.45703125 C17.88683736 15.90282773 19.45305067 17.41007985 21 19 C16.98324796 20.09964314 13.97748445 20.34246338 10 19 C5.44478617 14.38556987 0 6.60714259 0 0 Z " fill="#274F46" transform="translate(246,123)"/>
<path d="M0 0 C0 0.66 0 1.32 0 2 C-0.66 2 -1.32 2 -2 2 C-2 4.31 -2 6.62 -2 9 C-3.47906892 9.02689216 -4.95827483 9.04634621 -6.4375 9.0625 C-7.67306641 9.07990234 -7.67306641 9.07990234 -8.93359375 9.09765625 C-11 9 -11 9 -12 8 C-12.07179964 6.48071962 -12.08392007 4.95832518 -12.0625 3.4375 C-12.05347656 2.61121094 -12.04445313 1.78492187 -12.03515625 0.93359375 C-12.02355469 0.29550781 -12.01195312 -0.34257813 -12 -1 C-3.42857143 -2.42857143 -3.42857143 -2.42857143 0 0 Z " fill="#325B50" transform="translate(403,70)"/>
<path d="M0 0 C0.83272934 0.00222061 1.66545868 0.00444122 2.52342224 0.00672913 C3.46432205 0.00680466 4.40522186 0.00688019 5.37463379 0.00695801 C6.39754013 0.01211929 7.42044647 0.01728058 8.47434998 0.02259827 C9.51614914 0.02401321 10.5579483 0.02542816 11.63131714 0.02688599 C14.97355467 0.03250372 18.31572629 0.04505922 21.65794373 0.05775452 C23.91770839 0.06276723 26.17747409 0.06733053 28.4372406 0.07142639 C33.98999763 0.08247891 39.54271597 0.09923428 45.09544373 0.12025452 C44.76544373 1.11025452 44.43544373 2.10025452 44.09544373 3.12025452 C29.90544373 3.12025452 15.71544373 3.12025452 1.09544373 3.12025452 C1.09544373 4.11025452 1.09544373 5.10025452 1.09544373 6.12025452 C0.43544373 6.12025452 -0.22455627 6.12025452 -0.90455627 6.12025452 C-1.56455627 4.47025452 -2.22455627 2.82025452 -2.90455627 1.12025452 C-1.90455627 0.12025452 -1.90455627 0.12025452 0 0 Z " fill="#0B0B0B" transform="translate(259.90455627441406,215.87974548339844)"/>
<path d="M0 0 C3.96 0 7.92 0 12 0 C12 3.96 12 7.92 12 12 C8.7 11.67 5.4 11.34 2 11 C2.99 8.03 3.98 5.06 5 2 C3.35 2.33 1.7 2.66 0 3 C0 2.01 0 1.02 0 0 Z " fill="#325F53" transform="translate(482,76)"/>
<path d="M0 0 C6.93359375 -0.09765625 6.93359375 -0.09765625 9 0 C10 1 10 1 10.09765625 3.06640625 C10.06510417 5.37760417 10.03255208 7.68880208 10 10 C6.7 10 3.4 10 0 10 C0 6.7 0 3.4 0 0 Z " fill="#325E54" transform="translate(380,69)"/>
<path d="M0 0 C2.57161458 0.03255208 5.14322917 0.06510417 7.71484375 0.09765625 C7.38484375 3.39765625 7.05484375 6.69765625 6.71484375 10.09765625 C-0.21875 10.1953125 -0.21875 10.1953125 -2.28515625 10.09765625 C-3.28515625 9.09765625 -3.28515625 9.09765625 -3.41796875 7.28515625 C-3.41539062 6.56328125 -3.4128125 5.84140625 -3.41015625 5.09765625 C-3.41273438 4.37578125 -3.4153125 3.65390625 -3.41796875 2.91015625 C-3.21558021 0.14814788 -2.76566638 0.11819087 0 0 Z " fill="#335C52" transform="translate(394.28515625,56.90234375)"/>
<path d="M0 0 C0.721875 0.00257812 1.44375 0.00515625 2.1875 0.0078125 C2.909375 0.00523438 3.63125 0.00265625 4.375 0 C6.1875 0.1328125 6.1875 0.1328125 7.1875 1.1328125 C7.3203125 2.9453125 7.3203125 2.9453125 7.3125 5.1328125 C7.31507813 5.8546875 7.31765625 6.5765625 7.3203125 7.3203125 C7.1875 9.1328125 7.1875 9.1328125 6.1875 10.1328125 C4.66821962 10.20461214 3.14582518 10.21673257 1.625 10.1953125 C0.79871094 10.18628906 -0.02757812 10.17726563 -0.87890625 10.16796875 C-1.51699219 10.15636719 -2.15507812 10.14476563 -2.8125 10.1328125 C-2.83939216 8.65374358 -2.85884621 7.17453767 -2.875 5.6953125 C-2.88660156 4.87160156 -2.89820313 4.04789063 -2.91015625 3.19921875 C-2.78580037 0.56784823 -2.63135505 0.19281481 0 0 Z " fill="#315850" transform="translate(382.8125,56.8671875)"/>
<path d="M0 0 C2.64 0 5.28 0 8 0 C8 0.33 8 0.66 8 1 C5.69 1 3.38 1 1 1 C1 2.65 1 4.3 1 6 C1.66 6.33 2.32 6.66 3 7 C2.01 8.485 2.01 8.485 1 10 C0.34 10 -0.32 10 -1 10 C-1 10.66 -1 11.32 -1 12 C-5.29 12 -9.58 12 -14 12 C-14.33 8.37 -14.66 4.74 -15 1 C-14.01 1.33 -13.02 1.66 -12 2 C-12.020625 2.94875 -12.04125 3.8975 -12.0625 4.875 C-12.22551826 7.90666283 -12.22551826 7.90666283 -11 10 C-9.35 9.67 -7.7 9.34 -6 9 C-6 8.34 -6 7.68 -6 7 C-5.34 7 -4.68 7 -4 7 C-3.67 6.34 -3.34 5.68 -3 5 C-3 5.66 -3 6.32 -3 7 C-2.01 7 -1.02 7 0 7 C0 4.69 0 2.38 0 0 Z " fill="#31524A" transform="translate(482,90)"/>
<path d="M0 0 C4.66460134 1.60345671 9.11941597 3.94449342 13 7 C13.33 7.99 13.66 8.98 14 10 C11.6875 10.6875 11.6875 10.6875 9 11 C8.608125 10.5565625 8.21625 10.113125 7.8125 9.65625 C5.08734562 7.16602273 1.8133323 6.652569 -1.6875 5.8125 C-2.38939453 5.63525391 -3.09128906 5.45800781 -3.81445312 5.27539062 C-5.5406416 4.84090781 -7.2700347 4.41919208 -9 4 C-9 3.67 -9 3.34 -9 3 C-6.03 3.33 -3.06 3.66 0 4 C0 2.68 0 1.36 0 0 Z " fill="#2D4F48" transform="translate(560,126)"/>
<path d="M0 0 C1.32 0.33 2.64 0.66 4 1 C4.144375 1.78375 4.28875 2.5675 4.4375 3.375 C4.87798925 5.96421018 4.87798925 5.96421018 6 8 C6.66 8 7.32 8 8 8 C8.33 9.32 8.66 10.64 9 12 C6.03 12 3.06 12 0 12 C-1.91384609 8.49128216 -2.04276246 7.18632214 -1.125 3.1875 C-0.75375 2.135625 -0.3825 1.08375 0 0 Z " fill="#315C52" transform="translate(315,117)"/>
<path d="M0 0 C0 0.33 0 0.66 0 1 C-1.11858398 1.21148682 -1.11858398 1.21148682 -2.25976562 1.42724609 C-5.67363605 2.07410143 -9.08681805 2.72452207 -12.5 3.375 C-13.67304688 3.59671875 -14.84609375 3.8184375 -16.0546875 4.046875 C-23.36884726 5.44132371 -23.36884726 5.44132371 -30.59375 7.2265625 C-33.86430124 7.96918767 -34.95252065 7.93505992 -38 7 C-37.34 6.01 -36.68 5.02 -36 4 C-35.01 4.33 -34.02 4.66 -33 5 C-30.85407051 4.6792402 -30.85407051 4.6792402 -28.53515625 4.00390625 C-27.21874146 3.66008911 -27.21874146 3.66008911 -25.87573242 3.30932617 C-24.94736572 3.06287354 -24.01899902 2.8164209 -23.0625 2.5625 C-15.17923171 0.55914784 -8.16201496 -0.76043618 0 0 Z " fill="#2E5047" transform="translate(510,128)"/>
<path d="M0 0 C8.58 0 17.16 0 26 0 C26.33 0.66 26.66 1.32 27 2 C23.75201257 3.08266248 21.64103173 3.03436186 18.23828125 2.87890625 C17.12001953 2.83056641 16.00175781 2.78222656 14.84960938 2.73242188 C13.09874023 2.64831055 13.09874023 2.64831055 11.3125 2.5625 C9.54422852 2.48418945 9.54422852 2.48418945 7.74023438 2.40429688 C4.82655906 2.27453806 1.91321922 2.13956868 -1 2 C-0.67 1.34 -0.34 0.68 0 0 Z " fill="#0A0A0A" transform="translate(473,216)"/>
<path d="M0 0 C1.5625 1.25 1.5625 1.25 3 3 C2.81030273 5.0144043 2.81030273 5.0144043 2 7 C-0.69311091 8.1601552 -3.13793332 9.02610487 -5.9375 9.8125 C-6.67935547 10.04130859 -7.42121094 10.27011719 -8.18554688 10.50585938 C-13.71168007 12.14415997 -13.71168007 12.14415997 -16 11 C-15.34 10.01 -14.68 9.02 -14 8 C-13.01 8.33 -12.02 8.66 -11 9 C-8.41666667 8.91666667 -8.41666667 8.91666667 -6 8 C-4.63979849 6.03241727 -4.63979849 6.03241727 -4 4 C-2.68 4.33 -1.36 4.66 0 5 C0 3.35 0 1.7 0 0 Z " fill="#2E5147" transform="translate(409,125)"/>
<path d="M0 0 C3.13391709 2.97193935 5.66936708 6.11945661 8.1875 9.625 C8.88230469 10.58664063 9.57710938 11.54828125 10.29296875 12.5390625 C12 15 12 15 13 17 C10.36 17 7.72 17 5 17 C5 16.34 5 15.68 5 15 C5.99 15 6.98 15 8 15 C6.16172132 11.84866512 4.24027294 8.88035092 2 6 C0.68 6.33 -0.64 6.66 -2 7 C-1.34 6.67 -0.68 6.34 0 6 C0 4.02 0 2.04 0 0 Z " fill="#295249" transform="translate(365,63)"/>
<path d="M0 0 C2.83398763 0.09606738 5.02345099 0.27250432 7.6875 1.125 C7.6875 2.115 7.6875 3.105 7.6875 4.125 C6.3675 3.795 5.0475 3.465 3.6875 3.125 C4.0175 4.445 4.3475 5.765 4.6875 7.125 C0.43927626 6.65297514 -1.51239709 4.15844482 -4.3125 1.125 C-3.3125 0.125 -3.3125 0.125 0 0 Z " fill="#315D52" transform="translate(261.3125,140.875)"/>
<path d="M0 0 C1.04449911 3.13349732 0.93423645 3.98968256 0 7 C-0.66 7 -1.32 7 -2 7 C-2 7.66 -2 8.32 -2 9 C-2.59296875 9.24492188 -3.1859375 9.48984375 -3.796875 9.7421875 C-6.36698726 11.20952109 -7.54529966 12.72292225 -9.25 15.125 C-9.77078125 15.84945312 -10.2915625 16.57390625 -10.828125 17.3203125 C-11.21484375 17.87460938 -11.6015625 18.42890625 -12 19 C-12 15.52309251 -11.43327704 14.88707948 -9.375 12.20703125 C-8.83359375 11.49482422 -8.2921875 10.78261719 -7.734375 10.04882812 C-7.16203125 9.31083984 -6.5896875 8.57285156 -6 7.8125 C-5.42765625 7.06291016 -4.8553125 6.31332031 -4.265625 5.54101562 C-2.85007751 3.68900765 -1.42806196 1.84236451 0 0 Z " fill="#2A4E46" transform="translate(294,69)"/>
<path d="M0 0 C1.48285242 0.95262034 2.96118201 1.91228405 4.4375 2.875 C5.67306641 3.67550781 5.67306641 3.67550781 6.93359375 4.4921875 C9 6 9 6 10 8 C6.37 8 2.74 8 -1 8 C-0.67 5.36 -0.34 2.72 0 0 Z " fill="#2A544A" transform="translate(257,134)"/>
<path d="M0 0 C0.33 0.99 0.66 1.98 1 3 C-5.30229255 7.26929495 -12.74101969 8.99219693 -20 11 C-20.66 10.34 -21.32 9.68 -22 9 C-19.04329782 7.99513105 -16.08438423 6.99693976 -13.125 6 C-12.28324219 5.71382812 -11.44148438 5.42765625 -10.57421875 5.1328125 C-9.76855469 4.86210937 -8.96289062 4.59140625 -8.1328125 4.3125 C-7.38918457 4.06113281 -6.64555664 3.80976563 -5.87939453 3.55078125 C-4 3 -4 3 -2 3 C-2 2.34 -2 1.68 -2 1 C-1.34 0.67 -0.68 0.34 0 0 Z " fill="#31524A" transform="translate(441,125)"/>
<path d="M0 0 C5.08648251 4.60962477 9.5335504 10.07585598 13 16 C12.67 16.99 12.34 17.98 12 19 C8.39905052 16.59936701 7.73213353 14.62445767 6.0625 10.77734375 C5.05697699 8.65675972 5.05697699 8.65675972 2 8 C1.26953125 6.15234375 1.26953125 6.15234375 0.8125 3.9375 C0.65394531 3.20402344 0.49539063 2.47054687 0.33203125 1.71484375 C0.22246094 1.14894531 0.11289062 0.58304687 0 0 Z " fill="#2D5145" transform="translate(522,78)"/>
<path d="M0 0 C4.6875 3.61328125 4.6875 3.61328125 6 5 C6 5.99 6 6.98 6 8 C-1.625 7.125 -1.625 7.125 -5 6 C-4.67 5.01 -4.34 4.02 -4 3 C-3.01 3 -2.02 3 -1 3 C-0.67 2.01 -0.34 1.02 0 0 Z " fill="#254A3F" transform="translate(543,107)"/>
<path d="M0 0 C-2.3968665 2.3968665 -3.07028314 2.28281133 -6.3515625 2.4140625 C-7.20234375 2.45273438 -8.053125 2.49140625 -8.9296875 2.53125 C-9.81914062 2.5621875 -10.70859375 2.593125 -11.625 2.625 C-12.97078125 2.68300781 -12.97078125 2.68300781 -14.34375 2.7421875 C-16.5622927 2.83659357 -18.78082403 2.92216748 -21 3 C-21 2.34 -21 1.68 -21 1 C-14.03220597 -0.32719886 -7.07011089 -0.08825381 0 0 Z " fill="#2B5246" transform="translate(514,114)"/>
<path d="M0 0 C0.99 0.33 1.98 0.66 3 1 C3 2.98 3 4.96 3 7 C4.98 7.66 6.96 8.32 9 9 C9 9.33 9 9.66 9 10 C6.03 10 3.06 10 0 10 C0 6.7 0 3.4 0 0 Z " fill="#2B5A4E" transform="translate(380,69)"/>
<path d="M0 0 C0.99 0 1.98 0 3 0 C3.33 0.33 3.66 0.66 4 1 C4.99 1 5.98 1 7 1 C6.42415568 3.38564077 5.77772405 5.66682784 5 8 C2.4375 9.1875 2.4375 9.1875 0 10 C0 7 0 7 0.5625 4.4375 C1.25042261 2.00235139 1.25042261 2.00235139 0 0 Z " fill="#28544A" transform="translate(281,107)"/>
<path d="M0 0 C-0.99 1.485 -0.99 1.485 -2 3 C-4.97 2.505 -4.97 2.505 -8 2 C-8 3.32 -8 4.64 -8 6 C-7.01 6.33 -6.02 6.66 -5 7 C-7.97 6.505 -7.97 6.505 -11 6 C-11 5.01 -11 4.02 -11 3 C-7.40562198 -0.22254581 -4.67624088 -1.45124717 0 0 Z " fill="#2D645A" transform="translate(486,50)"/>
<path d="M0 0 C6.75 -0.125 6.75 -0.125 9 1 C9 1.66 9 2.32 9 3 C10.093125 3.12375 11.18625 3.2475 12.3125 3.375 C16 4 16 4 19 6 C12.16018724 5.48378772 6.36123316 3.51409031 0 1 C0 0.67 0 0.34 0 0 Z " fill="#34534B" transform="translate(286,163)"/>
<path d="M0 0 C1.09570312 0.00902344 2.19140625 0.01804687 3.3203125 0.02734375 C4.16335938 0.03894531 5.00640625 0.05054687 5.875 0.0625 C5.875 2.0425 5.875 4.0225 5.875 6.0625 C5.215 4.7425 4.555 3.4225 3.875 2.0625 C1.565 2.0625 -0.745 2.0625 -3.125 2.0625 C-3.125 2.7225 -3.125 3.3825 -3.125 4.0625 C-3.785 4.0625 -4.445 4.0625 -5.125 4.0625 C-5.455 4.7225 -5.785 5.3825 -6.125 6.0625 C-6.785 4.4125 -7.445 2.7625 -8.125 1.0625 C-5.36047967 -0.31976016 -3.0788637 -0.03275387 0 0 Z " fill="#294840" transform="translate(306.125,101.9375)"/>
<path d="M0 0 C0.99 0.33 1.98 0.66 3 1 C2.01 2.98 1.02 4.96 0 7 C-0.99 7 -1.98 7 -3 7 C-3.33 7.99 -3.66 8.98 -4 10 C-4.33 8.68 -4.66 7.36 -5 6 C-4.34 6 -3.68 6 -3 6 C-2.690625 5.195625 -2.38125 4.39125 -2.0625 3.5625 C-1 1 -1 1 0 0 Z " fill="#1D4C45" transform="translate(304,83)"/>
<path d="M0 0 C1.32 0.66 2.64 1.32 4 2 C3.67 5.3 3.34 8.6 3 12 C2.01 12 1.02 12 0 12 C0.33 9.03 0.66 6.06 1 3 C0.34 3 -0.32 3 -1 3 C-0.67 2.01 -0.34 1.02 0 0 Z " fill="#1E473C" transform="translate(467,76)"/>
<path d="M0 0 C0.99 0.33 1.98 0.66 3 1 C2.38801624 4.43950364 1.07941153 6.51564485 -1.0625 9.25 C-1.61035156 9.95640625 -2.15820312 10.6628125 -2.72265625 11.390625 C-3.14417969 11.92171875 -3.56570313 12.4528125 -4 13 C-5 11 -5 11 -4.1875 8.4375 C-3 6 -3 6 -1 5 C-0.34444881 2.47266765 -0.34444881 2.47266765 0 0 Z " fill="#274B41" transform="translate(377,30)"/>
<path d="M0 0 C2.99324263 1.0975223 3.84610901 1.67682892 5.25 4.625 C5.4975 5.40875 5.745 6.1925 6 7 C7.65 6.67 9.3 6.34 11 6 C11.33 6.66 11.66 7.32 12 8 C8.8125 8.875 8.8125 8.875 5 9 C2.61970642 7.2442389 1.63029939 5.56895662 0 3 C0 2.01 0 1.02 0 0 Z " fill="#2C4E45" transform="translate(438,112)"/>
<path d="M0 0 C1.09570312 0.10183594 2.19140625 0.20367188 3.3203125 0.30859375 C4.16335938 0.39238281 5.00640625 0.47617187 5.875 0.5625 C5.875 0.8925 5.875 1.2225 5.875 1.5625 C1.20298795 2.76818053 -3.33996292 2.65632426 -8.125 2.5625 C-8.125 1.9025 -8.125 1.2425 -8.125 0.5625 C-5.28943413 -0.85528293 -3.1341294 -0.30007622 0 0 Z " fill="#29554A" transform="translate(408.125,17.4375)"/>
<path d="M0 0 C2.25450812 0.27025649 4.4469848 0.6215213 6.6640625 1.109375 C2.20564414 3.44147076 -2.25550589 5.109375 -7.3359375 5.109375 C-3.60020811 0.16857162 -3.60020811 0.16857162 0 0 Z " fill="#2C4F45" transform="translate(383.3359375,14.890625)"/>
<path d="M0 0 C3.82215227 0.53085448 6.11756946 1.41575193 9 4 C11.1519437 7.22791555 11.20086443 8.28400809 11 12 C9 10 9 10 8.125 6.9375 C7.568125 5.4834375 7.568125 5.4834375 7 4 C5.07361988 3.24756445 5.07361988 3.24756445 3 3 C1.25 1.4375 1.25 1.4375 0 0 Z " fill="#24403C" transform="translate(479,55)"/>
<path d="M0 0 C2.875 0.25 2.875 0.25 6 1 C7.375 3.0625 7.375 3.0625 8 5 C5.625 5.625 5.625 5.625 3 6 C0.8614515 3.8614515 0.57344937 2.86724686 0 0 Z " fill="#0F2F2A" transform="translate(566,131)"/>
<path d="M0 0 C2.64 0 5.28 0 8 0 C7.835 0.598125 7.67 1.19625 7.5 1.8125 C6.8885876 4.11344336 6.8885876 4.11344336 7 7 C6.21625 6.360625 5.4325 5.72125 4.625 5.0625 C2.20460719 3.01857687 2.20460719 3.01857687 0 2 C0 1.34 0 0.68 0 0 Z " fill="#295148" transform="translate(331,98)"/>
<path d="M0 0 C5.53846154 0.61538462 5.53846154 0.61538462 7.875 2.5625 C8.431875 3.2740625 8.431875 3.2740625 9 4 C6.75 4.75 6.75 4.75 4 5 C1.6875 3.125 1.6875 3.125 0 1 C0 0.67 0 0.34 0 0 Z " fill="#2E5146" transform="translate(551,122)"/>
<path d="M0 0 C1.216875 0.144375 2.43375 0.28875 3.6875 0.4375 C3.6875 0.7675 3.6875 1.0975 3.6875 1.4375 C2.016875 1.8396875 2.016875 1.8396875 0.3125 2.25 C-3.53090951 3.09559019 -3.53090951 3.09559019 -5.3125 6.4375 C-5.9725 6.4375 -6.6325 6.4375 -7.3125 6.4375 C-7.6425 7.4275 -7.9725 8.4175 -8.3125 9.4375 C-8.6425 8.7775 -8.9725 8.1175 -9.3125 7.4375 C-5.33090181 -0.06628119 -5.33090181 -0.06628119 0 0 Z " fill="#2D4E46" transform="translate(308.3125,53.5625)"/>
<path d="M0 0 C5.28 0.33 10.56 0.66 16 1 C15.67 1.66 15.34 2.32 15 3 C9.47236394 3 5.24789267 2.86591739 0 1 C0 0.67 0 0.34 0 0 Z " fill="#264A3F" transform="translate(422,19)"/>
<path d="M0 0 C1.98 0.99 3.96 1.98 6 3 C5.34 3.66 4.68 4.32 4 5 C1.1796875 4.7578125 1.1796875 4.7578125 -2.125 4.125 C-3.22070312 3.92132813 -4.31640625 3.71765625 -5.4453125 3.5078125 C-6.28835938 3.34023437 -7.13140625 3.17265625 -8 3 C-8 2.67 -8 2.34 -8 2 C-6.865625 1.855625 -5.73125 1.71125 -4.5625 1.5625 C-1.19222799 1.38828522 -1.19222799 1.38828522 0 0 Z " fill="#2D4E46" transform="translate(545,125)"/>
<path d="M0 0 C2.46008778 0.08679142 4.91643517 0.19360955 7.375 0.3125 C8.07367187 0.33505859 8.77234375 0.35761719 9.4921875 0.38085938 C11.5234375 0.48828125 11.5234375 0.48828125 15 1 C15.66 1.99 16.32 2.98 17 4 C14.72796198 3.7178711 12.45738316 3.42397144 10.1875 3.125 C8.29064453 2.88136719 8.29064453 2.88136719 6.35546875 2.6328125 C3 2 3 2 0 0 Z " fill="#324D48" transform="translate(520,108)"/>
<path d="M0 0 C0.33 0.99 0.66 1.98 1 3 C1.66 3 2.32 3 3 3 C1.52307692 7.67692308 1.52307692 7.67692308 -1.125 9.3125 C-2.053125 9.6528125 -2.053125 9.6528125 -3 10 C-2.62875 9.236875 -2.2575 8.47375 -1.875 7.6875 C-1.58625 6.800625 -1.2975 5.91375 -1 5 C-1.66 4.01 -2.32 3.02 -3 2 C-2.01 1.34 -1.02 0.68 0 0 Z " fill="#2C5248" transform="translate(369,40)"/>
<path d="M0 0 C2.99324263 1.0975223 3.84610901 1.67682892 5.25 4.625 C5.4975 5.40875 5.745 6.1925 6 7 C3.0625 6.1875 3.0625 6.1875 0 5 C-0.33 4.01 -0.66 3.02 -1 2 C-0.67 1.34 -0.34 0.68 0 0 Z " fill="#2F5249" transform="translate(537,100)"/>
<path d="M0 0 C0.99 1.32 1.98 2.64 3 4 C3.33 3.34 3.66 2.68 4 2 C4.66 2 5.32 2 6 2 C5.34 3.32 4.68 4.64 4 6 C1 6 1 6 -0.6875 4.625 C-2 3 -2 3 -2 1 C-1.34 0.67 -0.68 0.34 0 0 Z " fill="#2B544A" transform="translate(452,80)"/>
<path d="M0 0 C0.66 0.33 1.32 0.66 2 1 C1.67 2.65 1.34 4.3 1 6 C-1.31 6 -3.62 6 -6 6 C-5.195625 5.38125 -4.39125 4.7625 -3.5625 4.125 C-0.96125481 2.25835959 -0.96125481 2.25835959 0 0 Z " fill="#3A5853" transform="translate(388,61)"/>
<path d="M0 0 C2.93200474 2.85276137 5.64315404 5.65079784 8 9 C7.67 9.66 7.34 10.32 7 11 C6.731875 10.360625 6.46375 9.72125 6.1875 9.0625 C5.11332248 6.66868314 5.11332248 6.66868314 2 6 C0.3125 3.4375 0.3125 3.4375 -1 1 C-0.67 0.67 -0.34 0.34 0 0 Z " fill="#2D5246" transform="translate(388,96)"/>
<path d="M0 0 C2.475 0.99 2.475 0.99 5 2 C2.53721199 4.46278801 0.29323018 4.99771255 -3 6 C-1.125 1.125 -1.125 1.125 0 0 Z " fill="#2A5549" transform="translate(298,63)"/>
<path d="M0 0 C0 0.99 0 1.98 0 3 C-2.30368736 4.06652192 -4.64018187 5.06421005 -7 6 C-7.66 5.67 -8.32 5.34 -9 5 C-9 4.34 -9 3.68 -9 3 C-6.03 2.01 -3.06 1.02 0 0 Z " fill="#2C4E47" transform="translate(392,142)"/>
<path d="M0 0 C0.66 0.33 1.32 0.66 2 1 C1.34 2.98 0.68 4.96 0 7 C-1.65 5.35 -3.3 3.7 -5 2 C-4.360625 1.855625 -3.72125 1.71125 -3.0625 1.5625 C-1.02454854 1.18992819 -1.02454854 1.18992819 0 0 Z " fill="#295448" transform="translate(508,83)"/>
<path d="M0 0 C0.66 0.99 1.32 1.98 2 3 C1.67 3.99 1.34 4.98 1 6 C0.34 6 -0.32 6 -1 6 C-1.66 6.66 -2.32 7.32 -3 8 C-3.33 7.01 -3.66 6.02 -4 5 C-2.0625 2.3125 -2.0625 2.3125 0 0 Z " fill="#31534A" transform="translate(368,32)"/>
<path d="M0 0 C0.66 0.33 1.32 0.66 2 1 C1.01 2.32 0.02 3.64 -1 5 C-5.875 3.25 -5.875 3.25 -7 1 C-4.03 1.495 -4.03 1.495 -1 2 C-0.67 1.34 -0.34 0.68 0 0 Z " fill="#284E43" transform="translate(270,132)"/>
<path d="M0 0 C1.5 1.375 1.5 1.375 3 3 C3 3.66 3 4.32 3 5 C4.65 5 6.3 5 8 5 C7.34 6.32 6.68 7.64 6 9 C0.42857143 3.85714286 0.42857143 3.85714286 0 0 Z " fill="#2C5048" transform="translate(351,121)"/>
<path d="M0 0 C3 2 3 2 5 5 C4.34 5.66 3.68 6.32 3 7 C3 6.34 3 5.68 3 5 C2.01 5.33 1.02 5.66 0 6 C-1.125 2.25 -1.125 2.25 0 0 Z " fill="#224F48" transform="translate(458,105)"/>
<path d="M0 0 C1.32 0.66 2.64 1.32 4 2 C4 2.66 4 3.32 4 4 C3.34 4 2.68 4 2 4 C1.67 4.99 1.34 5.98 1 7 C0.87625 6.360625 0.7525 5.72125 0.625 5.0625 C0.315625 4.0415625 0.315625 4.0415625 0 3 C-0.66 2.67 -1.32 2.34 -2 2 C-1.34 2 -0.68 2 0 2 C0 1.34 0 0.68 0 0 Z " fill="#1D443E" transform="translate(399,68)"/>
<path d="M0 0 C0.99 0 1.98 0 3 0 C1.55746343 3.36591866 -0.33264727 5.51047079 -3 8 C-3.33 7.01 -3.66 6.02 -4 5 C-3.34 4.360625 -2.68 3.72125 -2 3.0625 C0.11602431 1.35917681 0.11602431 1.35917681 0 0 Z " fill="#2D5144" transform="translate(463,72)"/>
<path d="M0 0 C3.08089673 2.77280706 4.68775452 5.06326356 6 9 C3 7.3125 3 7.3125 0 5 C-0.375 2.25 -0.375 2.25 0 0 Z " fill="#2F4D46" transform="translate(443,30)"/>
<path d="M0 0 C0.99 0.33 1.98 0.66 3 1 C3.185625 2.1446875 3.185625 2.1446875 3.375 3.3125 C3.88102792 6.20267136 3.88102792 6.20267136 6 9 C3.5067466 8.00269864 2.22532561 7.34925469 0.75 5.0625 C0 3 0 3 0 0 Z " fill="#1E473A" transform="translate(246,123)"/>
<path d="M0 0 C-3.06117568 2.62386487 -3.73173127 3 -8 3 C-8.66 2.67 -9.32 2.34 -10 2 C-6.80505194 -1.19494806 -4.22040044 -1.35655728 0 0 Z " fill="#2A4C43" transform="translate(461,123)"/>
<path d="M0 0 C0.33 0.99 0.66 1.98 1 3 C-1.375 4.5625 -1.375 4.5625 -4 6 C-4.66 5.67 -5.32 5.34 -6 5 C-4.68 4.34 -3.36 3.68 -2 3 C-2 2.34 -2 1.68 -2 1 C-1.34 0.67 -0.68 0.34 0 0 Z " fill="#1F443C" transform="translate(441,125)"/>
<path d="M0 0 C0.66 1.32 1.32 2.64 2 4 C2.66 4 3.32 4 4 4 C4.33 5.65 4.66 7.3 5 9 C2.5 6.75 2.5 6.75 0 4 C0 2.68 0 1.36 0 0 Z " fill="#255148" transform="translate(342,108)"/>
<path d="M0 0 C0.99 0.33 1.98 0.66 3 1 C0.53846154 4.81538462 0.53846154 4.81538462 -2.1875 5.75 C-2.785625 5.8325 -3.38375 5.915 -4 6 C-3.67 5.01 -3.34 4.02 -3 3 C-2.34 3 -1.68 3 -1 3 C-0.67 2.01 -0.34 1.02 0 0 Z " fill="#28473D" transform="translate(293,99)"/>
<path d="M0 0 C1.9375 0.6875 1.9375 0.6875 4 2 C4.75 4.625 4.75 4.625 5 7 C3.29115995 5.37660195 1.62553283 3.70680947 0 2 C0 1.34 0 0.68 0 0 Z " fill="#2B4C45" transform="translate(322,82)"/>
<path d="M0 0 C1.32 0.33 2.64 0.66 4 1 C4.33 2.65 4.66 4.3 5 6 C3.0625 5.25 3.0625 5.25 1 4 C0.25 1.875 0.25 1.875 0 0 Z " fill="#2C5248" transform="translate(441,80)"/>
<path d="" fill="#000000" transform="translate(0,0)"/>
<path d="" fill="#000000" transform="translate(0,0)"/>
<path d="" fill="#000000" transform="translate(0,0)"/>
<path d="" fill="#000000" transform="translate(0,0)"/>
<path d="" fill="#000000" transform="translate(0,0)"/>
<path d="" fill="#000000" transform="translate(0,0)"/>
<path d="" fill="#000000" transform="translate(0,0)"/>
<path d="" fill="#000000" transform="translate(0,0)"/>
<path d="" fill="#000000" transform="translate(0,0)"/>
<path d="" fill="#000000" transform="translate(0,0)"/>
<path d="" fill="#000000" transform="translate(0,0)"/>
<path d="" fill="#000000" transform="translate(0,0)"/>
<path d="" fill="#000000" transform="translate(0,0)"/>
<path d="" fill="#000000" transform="translate(0,0)"/>
</svg>
